<?xml version="1.0" encoding="UTF-8"?><svg id="Capa_1" xmlns="http://www.w3.org/2000/svg" viewBox="0 0 31.91 29.69"><defs><style>.cls-1{fill:#01d6f4;}.cls-2{fill:#01d5f4;}.cls-3{fill:#009ffc;}.cls-4{fill:#027bfe;}.cls-5{fill:#00a2fc;}.cls-6{fill:#027cfe;}.cls-7{fill:#027dff;}.cls-8{fill:#0476fe;}.cls-9{fill:#0477fe;}.cls-10{fill:#00d3f5;}.cls-11{fill:#00d4f4;}.cls-12{fill:#00d1f5;}.cls-13{fill:#00d2f5;}.cls-14{fill:#00d0f5;}.cls-15{fill:#00cdf6;}.cls-16{fill:#00cef6;}.cls-17{fill:#00cbf6;}.cls-18{fill:#00ccf6;}.cls-19{fill:#00c9f7;}.cls-20{fill:#00caf7;}.cls-21{fill:#00c3f8;}.cls-22{fill:#00c8f7;}.cls-23{fill:#00c6f8;}.cls-24{fill:#00c4f8;}.cls-25{fill:#00c1f9;}.cls-26{fill:#00c2f9;}.cls-27{fill:#00bafa;}.cls-28{fill:#00cff6;}.cls-29{fill:#00bbf9;}.cls-30{fill:#00c0f9;}.cls-31{fill:#00bcf9;}.cls-32{fill:#00c7f7;}.cls-33{fill:#00b3fa;}.cls-34{fill:#00bdf9;}.cls-35{fill:#00b8fa;}.cls-36{fill:#00d5f4;}.cls-37{fill:#00bef9;}.cls-38{fill:#017fff;}.cls-39{fill:#00b6fa;}.cls-40{fill:#00b9fa;}.cls-41{fill:#00b5fa;}.cls-42{fill:#00b1fa;}.cls-43{fill:#00bff9;}.cls-44{fill:#017eff;}.cls-45{fill:#00b4fa;}.cls-46{fill:#00abfb;}.cls-47{fill:#00b2fa;}.cls-48{fill:#00b0fb;}.cls-49{fill:#00b7fa;}.cls-50{fill:#00aefb;}.cls-51{fill:#00adfb;}.cls-52{fill:#00a6fb;}.cls-53{fill:#00acfb;}.cls-54{fill:#00aafb;}.cls-55{fill:#00a9fb;}.cls-56{fill:#00a3fc;}.cls-57{fill:#00c5f8;}.cls-58{fill:#00a8fb;}.cls-59{fill:#01e8ef;}.cls-60{fill:#01e7f0;}.cls-61{fill:#01e2f1;}.cls-62{fill:#01e1f1;}.cls-63{fill:#01dbf2;}.cls-64{fill:#01daf3;}.cls-65{fill:#01e5f0;}.cls-66{fill:#01def2;}.cls-67{fill:#01e4f0;}.cls-68{fill:#01e3f1;}.cls-69{fill:#01dcf2;}.cls-70{fill:#01dff2;}.cls-71{fill:#01d9f3;}.cls-72{fill:#01e0f1;}.cls-73{fill:#01ddf2;}.cls-74{fill:#037afe;}.cls-75{fill:#01eaef;}.cls-76{fill:#01e9ef;}.cls-77{fill:#0379fe;}.cls-78{fill:#0378fe;}.cls-79{fill:#0082ff;}.cls-80{fill:#008cfe;}.cls-81{fill:#008bfe;}.cls-82{fill:#0081ff;}.cls-83{fill:#01e6f0;}.cls-84{fill:#0092fd;}.cls-85{fill:#0091fe;}.cls-86{fill:#0083ff;}.cls-87{fill:#0096fd;}.cls-88{fill:#0090fe;}.cls-89{fill:#0086ff;}.cls-90{fill:#008ffe;}.cls-91{fill:#0085ff;}.cls-92{fill:#0084ff;}.cls-93{fill:#0098fd;}.cls-94{fill:#0097fd;}.cls-95{fill:#008efe;}.cls-96{fill:#008dfe;}.cls-97{fill:#0094fd;}.cls-98{fill:#0093fd;}.cls-99{fill:#008afe;}.cls-100{fill:#0089fe;}.cls-101{fill:#0095fd;}.cls-102{fill:#6950ff;}.cls-103{fill:#6750ff;}.cls-104{fill:#0080ff;}.cls-105{fill:#0087fe;}.cls-106{fill:#0088fe;}.cls-107{fill:#6650ff;}.cls-108{fill:#6850ff;}.cls-109{fill:#6550ff;}.cls-110{fill:#00a4fc;}.cls-111{fill:#00a5fc;}.cls-112{fill:#00affb;}.cls-113{fill:#00a1fc;}.cls-114{fill:#009efc;}.cls-115{fill:#009bfd;}.cls-116{fill:#00a0fc;}.cls-117{fill:#009dfc;}.cls-118{fill:#009afd;}.cls-119{fill:#00a7fb;}.cls-120{fill:#009cfc;}.cls-121{fill:#0099fd;}.cls-122{fill:#01d7f3;}.cls-123{fill:#01d8f3;}.cls-124{fill:#324dfb;}.cls-125{fill:#314dfb;}.cls-126{fill:#334dfb;}.cls-127{fill:#2f4dfb;}.cls-128{fill:#144df9;}.cls-129{fill:#1155fa;}.cls-130{fill:#1156fa;}.cls-131{fill:#134ff9;}.cls-132{fill:#1057fa;}.cls-133{fill:#1059fb;}.cls-134{fill:#1058fa;}.cls-135{fill:#1254fa;}.cls-136{fill:#1253fa;}.cls-137{fill:#1252fa;}.cls-138{fill:#1351fa;}.cls-139{fill:#1350fa;}.cls-140{fill:#0f5afb;}.cls-141{fill:#0f5bfb;}.cls-142{fill:#0f5cfb;}.cls-143{fill:#184bf9;}.cls-144{fill:#174bf9;}.cls-145{fill:#164bf9;}.cls-146{fill:#254cfa;}.cls-147{fill:#204cfa;}.cls-148{fill:#1f4cfa;}.cls-149{fill:#1e4cfa;}.cls-150{fill:#144ef9;}.cls-151{fill:#244cfa;}.cls-152{fill:#234cfa;}.cls-153{fill:#224cfa;}.cls-154{fill:#214cfa;}.cls-155{fill:#086bfd;}.cls-156{fill:#086dfd;}.cls-157{fill:#086cfd;}.cls-158{fill:#076efd;}.cls-159{fill:#076ffd;}.cls-160{fill:#424efc;}.cls-161{fill:#434efc;}.cls-162{fill:#404efc;}.cls-163{fill:#414efc;}.cls-164{fill:#0574fe;}.cls-165{fill:#0575fe;}.cls-166{fill:#0573fd;}.cls-167{fill:#0672fd;}.cls-168{fill:#0670fd;}.cls-169{fill:#0671fd;}.cls-170{fill:#154cf9;}.cls-171{fill:#154bf9;}.cls-172{fill:#0a66fc;}.cls-173{fill:#0a67fc;}.cls-174{fill:#096afc;}.cls-175{fill:#0969fc;}.cls-176{fill:#0e5efb;}.cls-177{fill:#0e5dfb;}.cls-178{fill:#0d5ffb;}.cls-179{fill:#0d60fb;}.cls-180{fill:#0d61fb;}.cls-181{fill:#1d4bfa;}.cls-182{fill:#364dfb;}.cls-183{fill:#374dfb;}.cls-184{fill:#444efc;}.cls-185{fill:#354dfb;}.cls-186{fill:#0a68fc;}.cls-187{fill:#1a4bf9;}.cls-188{fill:#194bf9;}.cls-189{fill:#3e4dfc;}.cls-190{fill:#3f4dfc;}.cls-191{fill:#3f4efc;}.cls-192{fill:#0c63fc;}.cls-193{fill:#0c62fc;}.cls-194{fill:#0b64fc;}.cls-195{fill:#0b65fc;}.cls-196{fill:#3d4dfc;}.cls-197{fill:#0b66fc;}.cls-198{fill:#1c4bf9;}.cls-199{fill:#1b4bf9;}.cls-200{fill:#464efd;}.cls-201{fill:#544ffe;}.cls-202{fill:#554ffe;}.cls-203{fill:#6450ff;}.cls-204{fill:#6350ff;}.cls-205{fill:#5b4ffe;}.cls-206{fill:#284cfa;}.cls-207{fill:#594ffe;}.cls-208{fill:#2a4cfa;}.cls-209{fill:#2b4cfb;}.cls-210{fill:#564ffe;}.cls-211{fill:#2d4cfb;}.cls-212{fill:#474efd;}.cls-213{fill:#294cfa;}.cls-214{fill:#4a4efd;}.cls-215{fill:#484efd;}.cls-216{fill:#2c4cfb;}.cls-217{fill:#5c4ffe;}.cls-218{fill:#2e4cfb;}.cls-219{fill:#3c4dfc;}.cls-220{fill:#304dfb;}.cls-221{fill:#3a4dfc;}.cls-222{fill:#3b4dfc;}.cls-223{fill:#384dfb;}.cls-224{fill:#344dfb;}.cls-225{fill:#394dfc;}.cls-226{fill:#5a4ffe;}.cls-227{fill:#584ffe;}.cls-228{fill:#574ffe;}.cls-229{fill:#4c4efd;}.cls-230{fill:#6250ff;}.cls-231{fill:#604ffe;}.cls-232{fill:#5f4ffe;}.cls-233{fill:#534ffd;}.cls-234{fill:#5d4ffe;}.cls-235{fill:#494efd;}.cls-236{fill:#6150fe;}.cls-237{fill:#4b4efd;}.cls-238{fill:#5e4ffe;}.cls-239{fill:#4f4efd;}.cls-240{fill:#524ffd;}.cls-241{fill:#504ffd;}.cls-242{fill:#4d4efd;}.cls-243{fill:#264cfa;}.cls-244{fill:#274cfa;}.cls-245{fill:#4e4efd;}.cls-246{fill:#454efc;}.cls-247{fill:#514ffd;}</style></defs><path class="cls-102" d="M4.23,29.69c2.34,0,4.23-1.92,4.23-4.29s-1.9-4.29-4.23-4.29S0,23.03,0,25.4s1.9,4.29,4.23,4.29Z"/><path class="cls-108" d="M4.23,29.69c2.34,0,4.23-1.92,4.23-4.29s-1.9-4.29-4.23-4.29S0,23.03,0,25.4s1.9,4.29,4.23,4.29Z"/><path class="cls-103" d="M4.23,29.69c2.34,0,4.23-1.92,4.23-4.29s-1.9-4.29-4.23-4.29S0,23.03,0,25.4s1.9,4.29,4.23,4.29Z"/><path class="cls-107" d="M4.23,29.69c2.34,0,4.23-1.92,4.23-4.29s-1.9-4.29-4.23-4.29S0,23.03,0,25.4s1.9,4.29,4.23,4.29Z"/><path class="cls-109" d="M4.23,29.69c2.34,0,4.23-1.92,4.23-4.29s-1.9-4.29-4.23-4.29S0,23.03,0,25.4s1.9,4.29,4.23,4.29Z"/><path class="cls-203" d="M4.23,29.69c2.34,0,4.23-1.92,4.23-4.29s-1.9-4.29-4.23-4.29S0,23.03,0,25.4s1.9,4.29,4.23,4.29Z"/><path class="cls-204" d="M4.23,29.69c2.34,0,4.23-1.92,4.23-4.29s-1.9-4.29-4.23-4.29S0,23.03,0,25.4s1.9,4.29,4.23,4.29Z"/><path class="cls-230" d="M4.23,29.69c2.34,0,4.23-1.92,4.23-4.29s-1.9-4.29-4.23-4.29S0,23.03,0,25.4s1.9,4.29,4.23,4.29Z"/><path class="cls-236" d="M4.23,29.69c2.34,0,4.23-1.92,4.23-4.29s-1.9-4.29-4.23-4.29S0,23.03,0,25.4s1.9,4.29,4.23,4.29Z"/><path class="cls-231" d="M4.23,29.69c2.34,0,4.23-1.92,4.23-4.29s-1.9-4.29-4.23-4.29S0,23.03,0,25.4s1.9,4.29,4.23,4.29Z"/><path class="cls-232" d="M4.23,29.69c2.34,0,4.23-1.92,4.23-4.29s-1.9-4.29-4.23-4.29S0,23.03,0,25.4s1.9,4.29,4.23,4.29Z"/><path class="cls-238" d="M4.23,29.69c2.34,0,4.23-1.92,4.23-4.29s-1.9-4.29-4.23-4.29S0,23.03,0,25.4s1.9,4.29,4.23,4.29Z"/><path class="cls-234" d="M4.23,29.69c2.34,0,4.23-1.92,4.23-4.29s-1.9-4.29-4.23-4.29S0,23.03,0,25.4s1.9,4.29,4.23,4.29Z"/><path class="cls-217" d="M4.23,29.69c2.34,0,4.23-1.92,4.23-4.29s-1.9-4.29-4.23-4.29S0,23.03,0,25.4s1.9,4.29,4.23,4.29Z"/><path class="cls-205" d="M4.23,29.69c2.34,0,4.23-1.92,4.23-4.29s-1.9-4.29-4.23-4.29S0,23.03,0,25.4s1.9,4.29,4.23,4.29Z"/><path class="cls-226" d="M4.23,29.69c2.34,0,4.23-1.92,4.23-4.29s-1.9-4.29-4.23-4.29S0,23.03,0,25.4s1.9,4.29,4.23,4.29Z"/><path class="cls-207" d="M4.23,29.69c2.34,0,4.23-1.92,4.23-4.29s-1.9-4.29-4.23-4.29S0,23.03,0,25.4s1.9,4.29,4.23,4.29Z"/><path class="cls-227" d="M4.23,29.69c2.34,0,4.23-1.92,4.23-4.29s-1.9-4.29-4.23-4.29S0,23.03,0,25.4s1.9,4.29,4.23,4.29Z"/><path class="cls-228" d="M4.23,29.69c2.34,0,4.23-1.92,4.23-4.29s-1.9-4.29-4.23-4.29S0,23.03,0,25.4s1.9,4.29,4.23,4.29Z"/><path class="cls-210" d="M4.23,29.69c2.34,0,4.23-1.92,4.23-4.29s-1.9-4.29-4.23-4.29S0,23.03,0,25.4s1.9,4.29,4.23,4.29Z"/><path class="cls-202" d="M4.23,29.69c2.34,0,4.23-1.92,4.23-4.29s-1.9-4.29-4.23-4.29S0,23.03,0,25.4s1.9,4.29,4.23,4.29Z"/><path class="cls-201" d="M4.23,29.69c2.34,0,4.23-1.92,4.23-4.29s-1.9-4.29-4.23-4.29S0,23.03,0,25.4s1.9,4.29,4.23,4.29Z"/><path class="cls-233" d="M4.23,29.69c2.34,0,4.23-1.92,4.23-4.29s-1.9-4.29-4.23-4.29S0,23.03,0,25.4s1.9,4.29,4.23,4.29Z"/><path class="cls-240" d="M4.23,29.69c2.34,0,4.23-1.92,4.23-4.29s-1.9-4.29-4.23-4.29S0,23.03,0,25.4s1.9,4.29,4.23,4.29Z"/><path class="cls-247" d="M4.23,29.69c2.34,0,4.23-1.92,4.23-4.29s-1.9-4.29-4.23-4.29S0,23.03,0,25.4s1.9,4.29,4.23,4.29Z"/><path class="cls-241" d="M4.23,29.69c2.34,0,4.23-1.92,4.23-4.29s-1.9-4.29-4.23-4.29S0,23.03,0,25.4s1.9,4.29,4.23,4.29Z"/><path class="cls-239" d="M4.23,29.69c2.34,0,4.23-1.92,4.23-4.29s-1.9-4.29-4.23-4.29S0,23.03,0,25.4s1.9,4.29,4.23,4.29Z"/><path class="cls-245" d="M4.23,29.69c2.34,0,4.23-1.92,4.23-4.29s-1.9-4.29-4.23-4.29S0,23.03,0,25.4s1.9,4.29,4.23,4.29Z"/><path class="cls-242" d="M4.23,29.69c2.34,0,4.23-1.92,4.23-4.29s-1.9-4.29-4.23-4.29S0,23.03,0,25.4s1.9,4.29,4.23,4.29Z"/><path class="cls-229" d="M4.23,29.69c2.34,0,4.23-1.92,4.23-4.29s-1.9-4.29-4.23-4.29S0,23.03,0,25.4s1.9,4.29,4.23,4.29Z"/><path class="cls-237" d="M4.23,29.69c2.34,0,4.23-1.92,4.23-4.29s-1.9-4.29-4.23-4.29S0,23.03,0,25.4s1.9,4.29,4.23,4.29Z"/><path class="cls-214" d="M4.23,29.69c2.34,0,4.23-1.92,4.23-4.29s-1.9-4.29-4.23-4.29S0,23.03,0,25.4s1.9,4.29,4.23,4.29Z"/><path class="cls-235" d="M4.23,29.69c2.34,0,4.23-1.92,4.23-4.29s-1.9-4.29-4.23-4.29S0,23.03,0,25.4s1.9,4.29,4.23,4.29Z"/><path class="cls-215" d="M4.23,29.69c2.34,0,4.23-1.92,4.23-4.29s-1.9-4.29-4.23-4.29S0,23.03,0,25.4s1.9,4.29,4.23,4.29Z"/><path class="cls-212" d="M4.23,29.69c2.34,0,4.23-1.92,4.23-4.29s-1.9-4.29-4.23-4.29S0,23.03,0,25.4s1.9,4.29,4.23,4.29Z"/><path class="cls-200" d="M4.23,29.69c2.34,0,4.23-1.92,4.23-4.29s-1.9-4.29-4.23-4.29S0,23.03,0,25.4s1.9,4.29,4.23,4.29Z"/><path class="cls-246" d="M4.23,29.69c2.34,0,4.23-1.92,4.23-4.29s-1.9-4.29-4.23-4.29S0,23.03,0,25.4s1.9,4.29,4.23,4.29Z"/><path class="cls-184" d="M4.23,29.69c2.34,0,4.23-1.92,4.23-4.29s-1.9-4.29-4.23-4.29S0,23.03,0,25.4s1.9,4.29,4.23,4.29Z"/><path class="cls-161" d="M4.23,29.69c2.34,0,4.23-1.92,4.23-4.29s-1.9-4.29-4.23-4.29S0,23.03,0,25.4s1.9,4.29,4.23,4.29Z"/><path class="cls-160" d="M4.23,29.69c2.34,0,4.23-1.92,4.23-4.29s-1.9-4.29-4.23-4.29S0,23.03,0,25.4s1.9,4.29,4.23,4.29Z"/><path class="cls-163" d="M4.23,29.69c2.34,0,4.23-1.92,4.23-4.29s-1.9-4.29-4.23-4.29S0,23.03,0,25.4s1.9,4.29,4.23,4.29Z"/><path class="cls-162" d="M4.23,29.69c2.34,0,4.23-1.92,4.23-4.29s-1.9-4.29-4.23-4.29S0,23.03,0,25.4s1.9,4.29,4.23,4.29Z"/><path class="cls-191" d="M4.23,29.69c2.34,0,4.23-1.92,4.23-4.29s-1.9-4.29-4.23-4.29S0,23.03,0,25.4s1.9,4.29,4.23,4.29Z"/><path class="cls-190" d="M4.23,29.69c2.34,0,4.23-1.92,4.23-4.29s-1.9-4.29-4.23-4.29S0,23.03,0,25.4s1.9,4.29,4.23,4.29Z"/><path class="cls-189" d="M4.23,29.69c2.34,0,4.23-1.92,4.23-4.29s-1.9-4.29-4.23-4.29S0,23.03,0,25.4s1.9,4.29,4.23,4.29Z"/><path class="cls-196" d="M4.23,29.69c2.34,0,4.23-1.92,4.23-4.29s-1.9-4.29-4.23-4.29S0,23.03,0,25.4s1.9,4.29,4.23,4.29Z"/><path class="cls-219" d="M4.23,29.69c2.34,0,4.23-1.92,4.23-4.29s-1.9-4.29-4.23-4.29S0,23.03,0,25.4s1.9,4.29,4.23,4.29Z"/><path class="cls-222" d="M4.23,29.69c2.34,0,4.23-1.92,4.23-4.29s-1.9-4.29-4.23-4.29S0,23.03,0,25.4s1.9,4.29,4.23,4.29Z"/><path class="cls-221" d="M4.23,29.69c2.34,0,4.23-1.92,4.23-4.29s-1.9-4.29-4.23-4.29S0,23.03,0,25.4s1.9,4.29,4.23,4.29Z"/><path class="cls-225" d="M4.23,29.69c2.34,0,4.23-1.92,4.23-4.29s-1.9-4.29-4.23-4.29S0,23.03,0,25.4s1.9,4.29,4.23,4.29Z"/><path class="cls-223" d="M4.23,29.69c2.34,0,4.23-1.92,4.23-4.29s-1.9-4.29-4.23-4.29S0,23.03,0,25.4s1.9,4.29,4.23,4.29Z"/><path class="cls-183" d="M4.23,29.69c2.34,0,4.23-1.92,4.23-4.29s-1.9-4.29-4.23-4.29S0,23.03,0,25.4s1.9,4.29,4.23,4.29Z"/><path class="cls-182" d="M4.23,29.69c2.34,0,4.23-1.92,4.23-4.29s-1.9-4.29-4.23-4.29S0,23.03,0,25.4s1.9,4.29,4.23,4.29Z"/><path class="cls-185" d="M4.23,29.69c2.34,0,4.23-1.92,4.23-4.29s-1.9-4.29-4.23-4.29S0,23.03,0,25.4s1.9,4.29,4.23,4.29Z"/><path class="cls-224" d="M4.23,29.69c2.34,0,4.23-1.92,4.23-4.29s-1.9-4.29-4.23-4.29S0,23.03,0,25.4s1.9,4.29,4.23,4.29Z"/><path class="cls-126" d="M4.23,29.69c2.34,0,4.23-1.92,4.23-4.29s-1.9-4.29-4.23-4.29S0,23.03,0,25.4s1.9,4.29,4.23,4.29Z"/><path class="cls-124" d="M4.23,29.69c2.34,0,4.23-1.92,4.23-4.29s-1.9-4.29-4.23-4.29S0,23.03,0,25.4s1.9,4.29,4.23,4.29Z"/><path class="cls-125" d="M4.23,29.69c2.34,0,4.23-1.92,4.23-4.29s-1.9-4.29-4.23-4.29S0,23.03,0,25.4s1.9,4.29,4.23,4.29Z"/><path class="cls-220" d="M4.23,29.69c2.34,0,4.23-1.92,4.23-4.29s-1.9-4.29-4.23-4.29S0,23.03,0,25.4s1.9,4.29,4.23,4.29Z"/><path class="cls-127" d="M4.23,29.69c2.34,0,4.23-1.92,4.23-4.29s-1.9-4.29-4.23-4.29S0,23.03,0,25.4s1.9,4.29,4.23,4.29Z"/><path class="cls-218" d="M4.23,29.69c2.34,0,4.23-1.92,4.23-4.29s-1.9-4.29-4.23-4.29S0,23.03,0,25.4s1.9,4.29,4.23,4.29Z"/><path class="cls-211" d="M4.23,29.69c2.34,0,4.23-1.92,4.23-4.29s-1.9-4.29-4.23-4.29S0,23.03,0,25.4s1.9,4.29,4.23,4.29Z"/><path class="cls-216" d="M4.23,29.69c2.34,0,4.23-1.92,4.23-4.29s-1.9-4.29-4.23-4.29S0,23.03,0,25.4s1.9,4.29,4.23,4.29Z"/><path class="cls-209" d="M4.23,29.69c2.34,0,4.23-1.92,4.23-4.29s-1.9-4.29-4.23-4.29S0,23.03,0,25.4s1.9,4.29,4.23,4.29Z"/><path class="cls-208" d="M4.23,29.69c2.34,0,4.23-1.92,4.23-4.29s-1.9-4.29-4.23-4.29S0,23.03,0,25.4s1.9,4.29,4.23,4.29Z"/><path class="cls-213" d="M4.23,29.69c2.34,0,4.23-1.92,4.23-4.29s-1.9-4.29-4.23-4.29S0,23.03,0,25.4s1.9,4.29,4.23,4.29Z"/><path class="cls-206" d="M4.23,29.69c2.34,0,4.23-1.92,4.23-4.29s-1.9-4.29-4.23-4.29S0,23.03,0,25.4s1.9,4.29,4.23,4.29Z"/><path class="cls-244" d="M4.23,29.69c2.34,0,4.23-1.92,4.23-4.29s-1.9-4.29-4.23-4.29S0,23.03,0,25.4s1.9,4.29,4.23,4.29Z"/><path class="cls-243" d="M4.23,29.69c2.34,0,4.23-1.92,4.23-4.29s-1.9-4.29-4.23-4.29S0,23.03,0,25.4s1.9,4.29,4.23,4.29Z"/><path class="cls-146" d="M4.23,29.69c2.34,0,4.23-1.92,4.23-4.29s-1.9-4.29-4.23-4.29S0,23.03,0,25.4s1.9,4.29,4.23,4.29Z"/><path class="cls-151" d="M4.23,29.69c2.34,0,4.23-1.92,4.23-4.29s-1.9-4.29-4.23-4.29S0,23.03,0,25.4s1.9,4.29,4.23,4.29Z"/><path class="cls-152" d="M4.23,29.69c2.34,0,4.23-1.92,4.23-4.29s-1.9-4.29-4.23-4.29S0,23.03,0,25.4s1.9,4.29,4.23,4.29Z"/><path class="cls-153" d="M4.23,29.69c2.34,0,4.23-1.92,4.23-4.29s-1.9-4.29-4.23-4.29S0,23.03,0,25.4s1.9,4.29,4.23,4.29Z"/><path class="cls-154" d="M4.23,29.69c2.34,0,4.23-1.92,4.23-4.29s-1.9-4.29-4.23-4.29S0,23.03,0,25.4s1.9,4.29,4.23,4.29Z"/><path class="cls-147" d="M4.23,29.69c2.34,0,4.23-1.92,4.23-4.29s-1.9-4.29-4.23-4.29S0,23.03,0,25.4s1.9,4.29,4.23,4.29Z"/><path class="cls-148" d="M4.23,29.69c2.34,0,4.23-1.92,4.23-4.29s-1.9-4.29-4.23-4.29S0,23.03,0,25.4s1.9,4.29,4.23,4.29Z"/><path class="cls-149" d="M4.23,29.69c2.34,0,4.23-1.92,4.23-4.29s-1.9-4.29-4.23-4.29S0,23.03,0,25.4s1.9,4.29,4.23,4.29Z"/><path class="cls-181" d="M4.23,29.69c2.34,0,4.23-1.92,4.23-4.29s-1.9-4.29-4.23-4.29S0,23.03,0,25.4s1.9,4.29,4.23,4.29Z"/><path class="cls-198" d="M4.23,29.69c2.34,0,4.23-1.92,4.23-4.29s-1.9-4.29-4.23-4.29S0,23.03,0,25.4s1.9,4.29,4.23,4.29Z"/><path class="cls-199" d="M4.23,29.69c2.34,0,4.23-1.92,4.23-4.29s-1.9-4.29-4.23-4.29S0,23.03,0,25.4s1.9,4.29,4.23,4.29Z"/><path class="cls-187" d="M4.23,29.69c2.34,0,4.23-1.92,4.23-4.29s-1.9-4.29-4.23-4.29S0,23.03,0,25.4s1.9,4.29,4.23,4.29Z"/><path class="cls-188" d="M4.23,29.69c2.34,0,4.23-1.92,4.23-4.29s-1.9-4.29-4.23-4.29S0,23.03,0,25.4s1.9,4.29,4.23,4.29Z"/><path class="cls-143" d="M4.23,29.69c2.34,0,4.23-1.92,4.23-4.29s-1.9-4.29-4.23-4.29S0,23.03,0,25.4s1.9,4.29,4.23,4.29Z"/><path class="cls-144" d="M4.23,29.69c2.34,0,4.23-1.92,4.23-4.29s-1.9-4.29-4.23-4.29S0,23.03,0,25.4s1.9,4.29,4.23,4.29Z"/><path class="cls-145" d="M4.23,29.69c2.34,0,4.23-1.92,4.23-4.29s-1.9-4.29-4.23-4.29S0,23.03,0,25.4s1.9,4.29,4.23,4.29Z"/><path class="cls-171" d="M4.23,29.69c2.34,0,4.23-1.92,4.23-4.29s-1.9-4.29-4.23-4.29S0,23.03,0,25.4s1.9,4.29,4.23,4.29Z"/><path class="cls-170" d="M4.34,29.49c2.34,0,4.23-1.92,4.23-4.29s-1.9-4.29-4.23-4.29S.11,22.83,.11,25.2s1.9,4.29,4.23,4.29Z"/><path class="cls-128" d="M4.45,29.3c2.34,0,4.23-1.92,4.23-4.29s-1.9-4.29-4.23-4.29S.21,22.64,.21,25.01s1.9,4.29,4.23,4.29Z"/><path class="cls-150" d="M4.55,29.12c2.34,0,4.23-1.92,4.23-4.29s-1.9-4.29-4.23-4.29S.32,22.46,.32,24.83s1.9,4.29,4.23,4.29Z"/><path class="cls-131" d="M4.66,28.92c2.34,0,4.23-1.92,4.23-4.29s-1.9-4.29-4.23-4.29S.42,22.26,.42,24.63s1.9,4.29,4.23,4.29Z"/><path class="cls-139" d="M4.76,28.73c2.34,0,4.23-1.92,4.23-4.29s-1.9-4.29-4.23-4.29S.53,22.07,.53,24.44s1.9,4.29,4.23,4.29Z"/><path class="cls-138" d="M4.87,28.54c2.34,0,4.23-1.92,4.23-4.29s-1.9-4.29-4.23-4.29S.64,21.88,.64,24.25s1.9,4.29,4.23,4.29Z"/><path class="cls-137" d="M4.98,28.34c2.34,0,4.23-1.92,4.23-4.29s-1.9-4.29-4.23-4.29S.74,21.68,.74,24.05s1.9,4.29,4.23,4.29Z"/><path class="cls-136" d="M5.08,28.15c2.34,0,4.23-1.92,4.23-4.29s-1.9-4.29-4.23-4.29S.85,21.49,.85,23.86s1.9,4.29,4.23,4.29Z"/><path class="cls-135" d="M5.2,27.97c2.34,0,4.23-1.92,4.23-4.29s-1.9-4.29-4.23-4.29S.97,21.31,.97,23.68s1.9,4.29,4.23,4.29Z"/><path class="cls-129" d="M5.31,27.77c2.34,0,4.23-1.92,4.23-4.29s-1.9-4.29-4.23-4.29-4.23,1.92-4.23,4.29,1.9,4.29,4.23,4.29Z"/><path class="cls-130" d="M5.41,27.58c2.34,0,4.23-1.92,4.23-4.29s-1.9-4.29-4.23-4.29-4.23,1.92-4.23,4.29,1.9,4.29,4.23,4.29Z"/><path class="cls-132" d="M5.52,27.39c2.34,0,4.23-1.92,4.23-4.29s-1.9-4.29-4.23-4.29-4.23,1.92-4.23,4.29,1.9,4.29,4.23,4.29Z"/><path class="cls-134" d="M5.62,27.19c2.34,0,4.23-1.92,4.23-4.29s-1.9-4.29-4.23-4.29-4.23,1.92-4.23,4.29,1.9,4.29,4.23,4.29Z"/><path class="cls-133" d="M5.73,27c2.34,0,4.23-1.92,4.23-4.29s-1.9-4.29-4.23-4.29-4.23,1.92-4.23,4.29,1.9,4.29,4.23,4.29Z"/><path class="cls-140" d="M5.84,26.81c2.34,0,4.23-1.92,4.23-4.29s-1.9-4.29-4.23-4.29-4.23,1.92-4.23,4.29,1.9,4.29,4.23,4.29Z"/><path class="cls-141" d="M5.94,26.62c2.34,0,4.23-1.92,4.23-4.29s-1.9-4.29-4.23-4.29-4.23,1.92-4.23,4.29,1.9,4.29,4.23,4.29Z"/><path class="cls-142" d="M6.05,26.43c2.34,0,4.23-1.92,4.23-4.29s-1.9-4.29-4.23-4.29-4.23,1.92-4.23,4.29,1.9,4.29,4.23,4.29Z"/><path class="cls-177" d="M6.15,26.24c2.34,0,4.23-1.92,4.23-4.29s-1.9-4.29-4.23-4.29-4.23,1.92-4.23,4.29,1.9,4.29,4.23,4.29Z"/><path class="cls-176" d="M6.26,26.04c2.34,0,4.23-1.92,4.23-4.29s-1.9-4.29-4.23-4.29-4.23,1.92-4.23,4.29,1.9,4.29,4.23,4.29Z"/><path class="cls-178" d="M6.37,25.85c2.34,0,4.23-1.92,4.23-4.29s-1.9-4.29-4.23-4.29-4.23,1.92-4.23,4.29,1.9,4.29,4.23,4.29Z"/><path class="cls-179" d="M6.47,25.66c2.34,0,4.23-1.92,4.23-4.29s-1.9-4.29-4.23-4.29-4.23,1.92-4.23,4.29,1.9,4.29,4.23,4.29Z"/><path class="cls-180" d="M6.58,25.47c2.34,0,4.23-1.92,4.23-4.29s-1.9-4.29-4.23-4.29-4.23,1.92-4.23,4.29,1.9,4.29,4.23,4.29Z"/><path class="cls-193" d="M6.68,25.28c2.34,0,4.23-1.92,4.23-4.29s-1.9-4.29-4.23-4.29-4.23,1.92-4.23,4.29,1.9,4.29,4.23,4.29Z"/><path class="cls-192" d="M6.79,25.09c2.34,0,4.23-1.92,4.23-4.29s-1.9-4.29-4.23-4.29-4.23,1.92-4.23,4.29,1.9,4.29,4.23,4.29Z"/><path class="cls-194" d="M6.9,24.89c2.34,0,4.23-1.92,4.23-4.29s-1.9-4.29-4.23-4.29-4.23,1.92-4.23,4.29,1.9,4.29,4.23,4.29Z"/><path class="cls-195" d="M7,24.7c2.34,0,4.23-1.92,4.23-4.29s-1.9-4.29-4.23-4.29-4.23,1.92-4.23,4.29,1.9,4.29,4.23,4.29Z"/><path class="cls-197" d="M7.11,24.51c2.34,0,4.23-1.92,4.23-4.29s-1.9-4.29-4.23-4.29-4.23,1.92-4.23,4.29,1.9,4.29,4.23,4.29Z"/><path class="cls-172" d="M7.22,24.32c2.34,0,4.23-1.92,4.23-4.29s-1.9-4.29-4.23-4.29-4.23,1.92-4.23,4.29,1.9,4.29,4.23,4.29Z"/><path class="cls-173" d="M7.32,24.13c2.34,0,4.23-1.92,4.23-4.29s-1.9-4.29-4.23-4.29-4.23,1.92-4.23,4.29,1.9,4.29,4.23,4.29Z"/><path class="cls-186" d="M7.43,23.94c2.34,0,4.23-1.92,4.23-4.29s-1.9-4.29-4.23-4.29-4.23,1.92-4.23,4.29,1.9,4.29,4.23,4.29Z"/><path class="cls-175" d="M7.53,23.74c2.34,0,4.23-1.92,4.23-4.29s-1.9-4.29-4.23-4.29-4.23,1.92-4.23,4.29,1.9,4.29,4.23,4.29Z"/><path class="cls-174" d="M7.64,23.55c2.34,0,4.23-1.92,4.23-4.29s-1.9-4.29-4.23-4.29-4.23,1.92-4.23,4.29,1.9,4.29,4.23,4.29Z"/><path class="cls-155" d="M7.75,23.35c2.34,0,4.23-1.92,4.23-4.29s-1.9-4.29-4.23-4.29-4.23,1.92-4.23,4.29,1.9,4.29,4.23,4.29Z"/><path class="cls-157" d="M7.85,23.16c2.34,0,4.23-1.92,4.23-4.29s-1.9-4.29-4.23-4.29-4.23,1.92-4.23,4.29,1.9,4.29,4.23,4.29Z"/><path class="cls-156" d="M7.97,22.98c2.34,0,4.23-1.92,4.23-4.29s-1.9-4.29-4.23-4.29-4.23,1.92-4.23,4.29,1.9,4.29,4.23,4.29Z"/><path class="cls-158" d="M8.07,22.78c2.34,0,4.23-1.92,4.23-4.29s-1.9-4.29-4.23-4.29-4.23,1.92-4.23,4.29,1.9,4.29,4.23,4.29Z"/><path class="cls-159" d="M8.18,22.59c2.34,0,4.23-1.92,4.23-4.29s-1.9-4.29-4.23-4.29-4.23,1.92-4.23,4.29,1.9,4.29,4.23,4.29Z"/><path class="cls-168" d="M8.29,22.4c2.34,0,4.23-1.92,4.23-4.29s-1.9-4.29-4.23-4.29-4.23,1.92-4.23,4.29,1.9,4.29,4.23,4.29Z"/><path class="cls-169" d="M8.39,22.2c2.34,0,4.23-1.92,4.23-4.29s-1.9-4.29-4.23-4.29-4.23,1.92-4.23,4.29,1.9,4.29,4.23,4.29Z"/><path class="cls-167" d="M8.5,22.01c2.34,0,4.23-1.92,4.23-4.29s-1.9-4.29-4.23-4.29-4.23,1.92-4.23,4.29,1.9,4.29,4.23,4.29Z"/><path class="cls-166" d="M8.61,21.83c2.34,0,4.23-1.92,4.23-4.29s-1.9-4.29-4.23-4.29-4.23,1.92-4.23,4.29,1.9,4.29,4.23,4.29Z"/><path class="cls-164" d="M8.71,21.63c2.34,0,4.23-1.92,4.23-4.29s-1.9-4.29-4.23-4.29-4.23,1.92-4.23,4.29,1.9,4.29,4.23,4.29Z"/><path class="cls-165" d="M8.82,21.44c2.34,0,4.23-1.92,4.23-4.29s-1.9-4.29-4.23-4.29-4.23,1.92-4.23,4.29,1.9,4.29,4.23,4.29Z"/><path class="cls-8" d="M8.92,21.25c2.34,0,4.23-1.92,4.23-4.29s-1.9-4.29-4.23-4.29-4.23,1.92-4.23,4.29,1.9,4.29,4.23,4.29Z"/><path class="cls-9" d="M9.03,21.05c2.34,0,4.23-1.92,4.23-4.29s-1.9-4.29-4.23-4.29-4.23,1.92-4.23,4.29,1.9,4.29,4.23,4.29Z"/><path class="cls-78" d="M9.14,20.86c2.34,0,4.23-1.92,4.23-4.29s-1.9-4.29-4.23-4.29-4.23,1.92-4.23,4.29,1.9,4.29,4.23,4.29Z"/><path class="cls-77" d="M9.24,20.67c2.34,0,4.23-1.92,4.23-4.29s-1.9-4.29-4.23-4.29-4.23,1.92-4.23,4.29,1.9,4.29,4.23,4.29Z"/><path class="cls-74" d="M9.35,20.48c2.34,0,4.23-1.92,4.23-4.29s-1.9-4.29-4.23-4.29-4.23,1.92-4.23,4.29,1.9,4.29,4.23,4.29Z"/><path class="cls-4" d="M9.45,20.29c2.34,0,4.23-1.92,4.23-4.29s-1.9-4.29-4.23-4.29-4.23,1.92-4.23,4.29,1.9,4.29,4.23,4.29Z"/><path class="cls-6" d="M9.56,20.1c2.34,0,4.23-1.92,4.23-4.29s-1.9-4.29-4.23-4.29-4.23,1.92-4.23,4.29,1.9,4.29,4.23,4.29Z"/><path class="cls-7" d="M9.67,19.9c2.34,0,4.23-1.92,4.23-4.29s-1.9-4.29-4.23-4.29-4.23,1.92-4.23,4.29,1.9,4.29,4.23,4.29Z"/><path class="cls-44" d="M9.77,19.71c2.34,0,4.23-1.92,4.23-4.29s-1.9-4.29-4.23-4.29-4.23,1.92-4.23,4.29,1.9,4.29,4.23,4.29Z"/><path class="cls-38" d="M9.88,19.52c2.34,0,4.23-1.92,4.23-4.29s-1.9-4.29-4.23-4.29-4.23,1.92-4.23,4.29,1.9,4.29,4.23,4.29Z"/><path class="cls-104" d="M9.98,19.33c2.34,0,4.23-1.92,4.23-4.29s-1.9-4.29-4.23-4.29-4.23,1.92-4.23,4.29,1.9,4.29,4.23,4.29Z"/><path class="cls-82" d="M10.09,19.14c2.34,0,4.23-1.92,4.23-4.29s-1.9-4.29-4.23-4.29-4.23,1.92-4.23,4.29,1.9,4.29,4.23,4.29Z"/><path class="cls-79" d="M10.19,18.97c2.34,0,4.23-1.92,4.23-4.29s-1.9-4.29-4.23-4.29-4.23,1.92-4.23,4.29,1.9,4.29,4.23,4.29Z"/><path class="cls-86" d="M10.28,18.81c2.34,0,4.23-1.92,4.23-4.29s-1.9-4.29-4.23-4.29-4.23,1.92-4.23,4.29,1.9,4.29,4.23,4.29Z"/><path class="cls-92" d="M10.37,18.65c2.34,0,4.23-1.92,4.23-4.29s-1.9-4.29-4.23-4.29-4.23,1.92-4.23,4.29,1.9,4.29,4.23,4.29Z"/><path class="cls-91" d="M10.46,18.47c2.34,0,4.23-1.92,4.23-4.29s-1.9-4.29-4.23-4.29-4.23,1.92-4.23,4.29,1.9,4.29,4.23,4.29Z"/><path class="cls-89" d="M10.55,18.31c2.34,0,4.23-1.92,4.23-4.29s-1.9-4.29-4.23-4.29-4.23,1.92-4.23,4.29,1.9,4.29,4.23,4.29Z"/><path class="cls-105" d="M10.64,18.15c2.34,0,4.23-1.92,4.23-4.29s-1.9-4.29-4.23-4.29-4.23,1.92-4.23,4.29,1.9,4.29,4.23,4.29Z"/><path class="cls-106" d="M10.74,17.98c2.34,0,4.23-1.92,4.23-4.29s-1.9-4.29-4.23-4.29-4.23,1.92-4.23,4.29,1.9,4.29,4.23,4.29Z"/><path class="cls-100" d="M10.82,17.82c2.34,0,4.23-1.92,4.23-4.29s-1.9-4.29-4.23-4.29-4.23,1.92-4.23,4.29,1.9,4.29,4.23,4.29Z"/><path class="cls-99" d="M10.92,17.66c2.34,0,4.23-1.92,4.23-4.29s-1.9-4.29-4.23-4.29-4.23,1.92-4.23,4.29,1.9,4.29,4.23,4.29Z"/><path class="cls-81" d="M11.01,17.48c2.34,0,4.23-1.92,4.23-4.29s-1.9-4.29-4.23-4.29-4.23,1.92-4.23,4.29,1.9,4.29,4.23,4.29Z"/><path class="cls-80" d="M11.1,17.32c2.34,0,4.23-1.92,4.23-4.29s-1.9-4.29-4.23-4.29-4.23,1.92-4.23,4.29,1.9,4.29,4.23,4.29Z"/><path class="cls-96" d="M11.19,17.16c2.34,0,4.23-1.92,4.23-4.29s-1.9-4.29-4.23-4.29-4.23,1.92-4.23,4.29,1.9,4.29,4.23,4.29Z"/><path class="cls-95" d="M11.28,16.99c2.34,0,4.23-1.92,4.23-4.29s-1.9-4.29-4.23-4.29-4.23,1.92-4.23,4.29,1.9,4.29,4.23,4.29Z"/><path class="cls-90" d="M11.37,16.83c2.34,0,4.23-1.92,4.23-4.29s-1.9-4.29-4.23-4.29-4.23,1.92-4.23,4.29,1.9,4.29,4.23,4.29Z"/><path class="cls-88" d="M11.47,16.67c2.34,0,4.23-1.92,4.23-4.29s-1.9-4.29-4.23-4.29-4.23,1.92-4.23,4.29,1.9,4.29,4.23,4.29Z"/><path class="cls-85" d="M11.56,16.49c2.34,0,4.23-1.92,4.23-4.29s-1.9-4.29-4.23-4.29-4.23,1.92-4.23,4.29,1.9,4.29,4.23,4.29Z"/><path class="cls-84" d="M11.65,16.33c2.34,0,4.23-1.92,4.23-4.29s-1.9-4.29-4.23-4.29-4.23,1.92-4.23,4.29,1.9,4.29,4.23,4.29Z"/><path class="cls-98" d="M11.75,16.17c2.34,0,4.23-1.92,4.23-4.29s-1.9-4.29-4.23-4.29-4.23,1.92-4.23,4.29,1.9,4.29,4.23,4.29Z"/><path class="cls-97" d="M11.83,16c2.34,0,4.23-1.92,4.23-4.29s-1.9-4.29-4.23-4.29-4.23,1.92-4.23,4.29,1.9,4.29,4.23,4.29Z"/><path class="cls-101" d="M11.93,15.84c2.34,0,4.23-1.92,4.23-4.29s-1.9-4.29-4.23-4.29-4.23,1.92-4.23,4.29,1.9,4.29,4.23,4.29Z"/><path class="cls-87" d="M12.01,15.68c2.34,0,4.23-1.92,4.23-4.29s-1.9-4.29-4.23-4.29-4.23,1.92-4.23,4.29,1.9,4.29,4.23,4.29Z"/><path class="cls-94" d="M12.11,15.51c2.34,0,4.23-1.92,4.23-4.29s-1.9-4.29-4.23-4.29-4.23,1.92-4.23,4.29,1.9,4.29,4.23,4.29Z"/><path class="cls-93" d="M12.2,15.34c2.34,0,4.23-1.92,4.23-4.29s-1.9-4.29-4.23-4.29-4.23,1.92-4.23,4.29,1.9,4.29,4.23,4.29Z"/><path class="cls-121" d="M12.29,15.18c2.34,0,4.23-1.92,4.23-4.29s-1.9-4.29-4.23-4.29-4.23,1.92-4.23,4.29,1.9,4.29,4.23,4.29Z"/><path class="cls-118" d="M12.38,15.01c2.34,0,4.23-1.92,4.23-4.29s-1.9-4.29-4.23-4.29-4.23,1.92-4.23,4.29,1.9,4.29,4.23,4.29Z"/><path class="cls-115" d="M12.48,14.85c2.34,0,4.23-1.92,4.23-4.29s-1.9-4.29-4.23-4.29-4.23,1.92-4.23,4.29,1.9,4.29,4.23,4.29Z"/><path class="cls-120" d="M12.56,14.69c2.34,0,4.23-1.92,4.23-4.29s-1.9-4.29-4.23-4.29-4.23,1.92-4.23,4.29,1.9,4.29,4.23,4.29Z"/><path class="cls-117" d="M12.66,14.52c2.34,0,4.23-1.92,4.23-4.29s-1.9-4.29-4.23-4.29-4.23,1.92-4.23,4.29,1.9,4.29,4.23,4.29Z"/><path class="cls-114" d="M12.74,14.35c2.34,0,4.23-1.92,4.23-4.29s-1.9-4.29-4.23-4.29-4.23,1.92-4.23,4.29,1.9,4.29,4.23,4.29Z"/><path class="cls-3" d="M12.84,14.19c2.34,0,4.23-1.92,4.23-4.29s-1.9-4.29-4.23-4.29-4.23,1.92-4.23,4.29,1.9,4.29,4.23,4.29Z"/><path class="cls-116" d="M12.93,14.02c2.34,0,4.23-1.92,4.23-4.29s-1.9-4.29-4.23-4.29-4.23,1.92-4.23,4.29,1.9,4.29,4.23,4.29Z"/><path class="cls-113" d="M13.02,13.86c2.34,0,4.23-1.92,4.23-4.29s-1.9-4.29-4.23-4.29-4.23,1.92-4.23,4.29,1.9,4.29,4.23,4.29Z"/><path class="cls-113" d="M13.11,13.7c2.34,0,4.23-1.92,4.23-4.29s-1.9-4.29-4.23-4.29-4.23,1.92-4.23,4.29,1.9,4.29,4.23,4.29Z"/><path class="cls-5" d="M13.21,13.53c2.34,0,4.23-1.92,4.23-4.29s-1.9-4.29-4.23-4.29-4.23,1.92-4.23,4.29,1.9,4.29,4.23,4.29Z"/><path class="cls-56" d="M13.3,13.37c2.34,0,4.23-1.92,4.23-4.29s-1.9-4.29-4.23-4.29-4.23,1.92-4.23,4.29,1.9,4.29,4.23,4.29Z"/><path class="cls-110" d="M13.39,13.2c2.34,0,4.23-1.92,4.23-4.29s-1.9-4.29-4.23-4.29-4.23,1.92-4.23,4.29,1.9,4.29,4.23,4.29Z"/><path class="cls-111" d="M13.48,13.03c2.34,0,4.23-1.92,4.23-4.29s-1.9-4.29-4.23-4.29-4.23,1.92-4.23,4.29,1.9,4.29,4.23,4.29Z"/><path class="cls-52" d="M13.57,12.87c2.34,0,4.23-1.92,4.23-4.29s-1.9-4.29-4.23-4.29-4.23,1.92-4.23,4.29,1.9,4.29,4.23,4.29Z"/><path class="cls-119" d="M13.67,12.71c2.34,0,4.23-1.92,4.23-4.29s-1.9-4.29-4.23-4.29-4.23,1.92-4.23,4.29,1.9,4.29,4.23,4.29Z"/><path class="cls-58" d="M13.75,12.54c2.34,0,4.23-1.92,4.23-4.29s-1.9-4.29-4.23-4.29-4.23,1.92-4.23,4.29,1.9,4.29,4.23,4.29Z"/><path class="cls-55" d="M13.85,12.38c2.34,0,4.23-1.92,4.23-4.29s-1.9-4.29-4.23-4.29-4.23,1.92-4.23,4.29,1.9,4.29,4.23,4.29Z"/><path class="cls-54" d="M13.94,12.22c2.34,0,4.23-1.92,4.23-4.29s-1.9-4.29-4.23-4.29-4.23,1.92-4.23,4.29,1.9,4.29,4.23,4.29Z"/><path class="cls-46" d="M14.03,12.04c2.34,0,4.23-1.92,4.23-4.29s-1.9-4.29-4.23-4.29-4.23,1.92-4.23,4.29,1.9,4.29,4.23,4.29Z"/><path class="cls-53" d="M14.12,11.88c2.34,0,4.23-1.92,4.23-4.29s-1.9-4.29-4.23-4.29-4.23,1.92-4.23,4.29,1.9,4.29,4.23,4.29Z"/><path class="cls-51" d="M14.21,11.72c2.34,0,4.23-1.92,4.23-4.29s-1.9-4.29-4.23-4.29-4.23,1.92-4.23,4.29,1.9,4.29,4.23,4.29Z"/><path class="cls-50" d="M14.3,11.55c2.34,0,4.23-1.92,4.23-4.29s-1.9-4.29-4.23-4.29-4.23,1.92-4.23,4.29,1.9,4.29,4.23,4.29Z"/><path class="cls-112" d="M14.4,11.39c2.34,0,4.23-1.92,4.23-4.29s-1.9-4.29-4.23-4.29-4.23,1.92-4.23,4.29,1.9,4.29,4.23,4.29Z"/><path class="cls-48" d="M14.48,11.23c2.34,0,4.23-1.92,4.23-4.29s-1.9-4.29-4.23-4.29-4.23,1.92-4.23,4.29,1.9,4.29,4.23,4.29Z"/><path class="cls-42" d="M14.58,11.05c2.34,0,4.23-1.92,4.23-4.29s-1.9-4.29-4.23-4.29-4.23,1.92-4.23,4.29,1.9,4.29,4.23,4.29Z"/><path class="cls-47" d="M14.67,10.89c2.34,0,4.23-1.92,4.23-4.29s-1.9-4.29-4.23-4.29-4.23,1.92-4.23,4.29,1.9,4.29,4.23,4.29Z"/><path class="cls-33" d="M14.76,10.73c2.34,0,4.23-1.92,4.23-4.29s-1.9-4.29-4.23-4.29-4.23,1.92-4.23,4.29,1.9,4.29,4.23,4.29Z"/><path class="cls-45" d="M14.85,10.56c2.34,0,4.23-1.92,4.23-4.29s-1.9-4.29-4.23-4.29-4.23,1.92-4.23,4.29,1.9,4.29,4.23,4.29Z"/><path class="cls-41" d="M14.94,10.4c2.34,0,4.23-1.92,4.23-4.29s-1.9-4.29-4.23-4.29-4.23,1.92-4.23,4.29,1.9,4.29,4.23,4.29Z"/><path class="cls-39" d="M15.04,10.24c2.34,0,4.23-1.92,4.23-4.29s-1.9-4.29-4.23-4.29-4.23,1.92-4.23,4.29,1.9,4.29,4.23,4.29Z"/><path class="cls-49" d="M15.13,10.06c2.34,0,4.23-1.92,4.23-4.29s-1.9-4.29-4.23-4.29-4.23,1.92-4.23,4.29,1.9,4.29,4.23,4.29Z"/><path class="cls-35" d="M15.22,9.9c2.34,0,4.23-1.92,4.23-4.29s-1.9-4.29-4.23-4.29-4.23,1.92-4.23,4.29,1.9,4.29,4.23,4.29Z"/><path class="cls-40" d="M15.31,9.74c2.34,0,4.23-1.92,4.23-4.29s-1.9-4.29-4.23-4.29-4.23,1.92-4.23,4.29,1.9,4.29,4.23,4.29Z"/><path class="cls-27" d="M15.41,9.57c2.34,0,4.23-1.92,4.23-4.29S17.75,.99,15.41,.99s-4.23,1.92-4.23,4.29,1.9,4.29,4.23,4.29Z"/><path class="cls-29" d="M15.49,9.41c2.34,0,4.23-1.92,4.23-4.29S17.83,.83,15.49,.83s-4.23,1.92-4.23,4.29,1.9,4.29,4.23,4.29Z"/><path class="cls-31" d="M15.59,9.25c2.34,0,4.23-1.92,4.23-4.29S17.93,.67,15.59,.67s-4.23,1.92-4.23,4.29,1.9,4.29,4.23,4.29Z"/><path class="cls-34" d="M15.67,9.08c2.34,0,4.23-1.92,4.23-4.29S18.01,.49,15.67,.49s-4.23,1.92-4.23,4.29,1.9,4.29,4.23,4.29Z"/><path class="cls-37" d="M15.77,8.91c2.34,0,4.23-1.92,4.23-4.29S18.11,.33,15.77,.33s-4.23,1.92-4.23,4.29,1.9,4.29,4.23,4.29Z"/><path class="cls-43" d="M15.86,8.75c2.34,0,4.23-1.92,4.23-4.29S18.2,.17,15.86,.17s-4.23,1.92-4.23,4.29,1.9,4.29,4.23,4.29Z"/><path class="cls-30" d="M15.95,8.58c2.34,0,4.23-1.92,4.23-4.29S18.29,0,15.95,0s-4.23,1.92-4.23,4.29,1.9,4.29,4.23,4.29Z"/><path class="cls-25" d="M16.22,9.08c2.34,0,4.23-1.92,4.23-4.29S18.56,.49,16.22,.49s-4.23,1.92-4.23,4.29,1.9,4.29,4.23,4.29Z"/><path class="cls-26" d="M16.5,9.57c2.34,0,4.23-1.92,4.23-4.29S18.84,.99,16.5,.99s-4.23,1.92-4.23,4.29,1.9,4.29,4.23,4.29Z"/><path class="cls-21" d="M16.76,10.05c2.34,0,4.23-1.92,4.23-4.29s-1.9-4.29-4.23-4.29-4.23,1.92-4.23,4.29,1.9,4.29,4.23,4.29Z"/><path class="cls-24" d="M17.04,10.55c2.34,0,4.23-1.92,4.23-4.29s-1.9-4.29-4.23-4.29-4.23,1.92-4.23,4.29,1.9,4.29,4.23,4.29Z"/><path class="cls-57" d="M17.32,11.03c2.34,0,4.23-1.92,4.23-4.29s-1.9-4.29-4.23-4.29-4.23,1.92-4.23,4.29,1.9,4.29,4.23,4.29Z"/><path class="cls-23" d="M17.58,11.53c2.34,0,4.23-1.92,4.23-4.29s-1.9-4.29-4.23-4.29-4.23,1.92-4.23,4.29,1.9,4.29,4.23,4.29Z"/><path class="cls-32" d="M17.86,12.02c2.34,0,4.23-1.92,4.23-4.29s-1.9-4.29-4.23-4.29-4.23,1.92-4.23,4.29,1.9,4.29,4.23,4.29Z"/><path class="cls-22" d="M18.13,12.51c2.34,0,4.23-1.92,4.23-4.29s-1.9-4.29-4.23-4.29-4.23,1.92-4.23,4.29,1.9,4.29,4.23,4.29Z"/><path class="cls-19" d="M18.4,13c2.34,0,4.23-1.92,4.23-4.29s-1.9-4.29-4.23-4.29-4.23,1.92-4.23,4.29,1.9,4.29,4.23,4.29Z"/><path class="cls-20" d="M18.67,13.49c2.34,0,4.23-1.92,4.23-4.29s-1.9-4.29-4.23-4.29-4.23,1.92-4.23,4.29,1.9,4.29,4.23,4.29Z"/><path class="cls-17" d="M18.95,13.98c2.34,0,4.23-1.92,4.23-4.29s-1.9-4.29-4.23-4.29-4.23,1.92-4.23,4.29,1.9,4.29,4.23,4.29Z"/><path class="cls-18" d="M19.22,14.47c2.34,0,4.23-1.92,4.23-4.29s-1.9-4.29-4.23-4.29-4.23,1.92-4.23,4.29,1.9,4.29,4.23,4.29Z"/><path class="cls-15" d="M19.49,14.97c2.34,0,4.23-1.92,4.23-4.29s-1.9-4.29-4.23-4.29-4.23,1.92-4.23,4.29,1.9,4.29,4.23,4.29Z"/><path class="cls-16" d="M19.77,15.45c2.34,0,4.23-1.92,4.23-4.29s-1.9-4.29-4.23-4.29-4.23,1.92-4.23,4.29,1.9,4.29,4.23,4.29Z"/><path class="cls-28" d="M20.04,15.95c2.34,0,4.23-1.92,4.23-4.29s-1.9-4.29-4.23-4.29-4.23,1.92-4.23,4.29,1.9,4.29,4.23,4.29Z"/><path class="cls-14" d="M20.31,16.44c2.34,0,4.23-1.92,4.23-4.29s-1.9-4.29-4.23-4.29-4.23,1.92-4.23,4.29,1.9,4.29,4.23,4.29Z"/><path class="cls-12" d="M20.58,16.92c2.34,0,4.23-1.92,4.23-4.29s-1.9-4.29-4.23-4.29-4.23,1.92-4.23,4.29,1.9,4.29,4.23,4.29Z"/><path class="cls-13" d="M20.86,17.42c2.34,0,4.23-1.92,4.23-4.29s-1.9-4.29-4.23-4.29-4.23,1.92-4.23,4.29,1.9,4.29,4.23,4.29Z"/><path class="cls-10" d="M21.13,17.91c2.34,0,4.23-1.92,4.23-4.29s-1.9-4.29-4.23-4.29-4.23,1.92-4.23,4.29,1.9,4.29,4.23,4.29Z"/><path class="cls-11" d="M21.4,18.4c2.34,0,4.23-1.92,4.23-4.29s-1.9-4.29-4.23-4.29-4.23,1.92-4.23,4.29,1.9,4.29,4.23,4.29Z"/><path class="cls-36" d="M21.68,18.89c2.34,0,4.23-1.92,4.23-4.29s-1.9-4.29-4.23-4.29-4.23,1.92-4.23,4.29,1.9,4.29,4.23,4.29Z"/><path class="cls-2" d="M21.94,19.39c2.34,0,4.23-1.92,4.23-4.29s-1.9-4.29-4.23-4.29-4.23,1.92-4.23,4.29,1.9,4.29,4.23,4.29Z"/><path class="cls-1" d="M22.22,19.87c2.34,0,4.23-1.92,4.23-4.29s-1.9-4.29-4.23-4.29-4.23,1.92-4.23,4.29,1.9,4.29,4.23,4.29Z"/><path class="cls-122" d="M22.49,20.37c2.34,0,4.23-1.92,4.23-4.29s-1.9-4.29-4.23-4.29-4.23,1.92-4.23,4.29,1.9,4.29,4.23,4.29Z"/><path class="cls-123" d="M22.76,20.85c2.34,0,4.23-1.92,4.23-4.29s-1.9-4.29-4.23-4.29-4.23,1.92-4.23,4.29,1.9,4.29,4.23,4.29Z"/><path class="cls-71" d="M23.04,21.34c2.34,0,4.23-1.92,4.23-4.29s-1.9-4.29-4.23-4.29-4.23,1.92-4.23,4.29,1.9,4.29,4.23,4.29Z"/><path class="cls-64" d="M23.31,21.84c2.34,0,4.23-1.92,4.23-4.29s-1.9-4.29-4.23-4.29-4.23,1.92-4.23,4.29,1.9,4.29,4.23,4.29Z"/><path class="cls-63" d="M23.58,22.32c2.34,0,4.23-1.92,4.23-4.29s-1.9-4.29-4.23-4.29-4.23,1.92-4.23,4.29,1.9,4.29,4.23,4.29Z"/><path class="cls-69" d="M23.85,22.82c2.34,0,4.23-1.92,4.23-4.29s-1.9-4.29-4.23-4.29-4.23,1.92-4.23,4.29,1.9,4.29,4.23,4.29Z"/><path class="cls-73" d="M24.13,23.31c2.34,0,4.23-1.92,4.23-4.29s-1.9-4.29-4.23-4.29-4.23,1.92-4.23,4.29,1.9,4.29,4.23,4.29Z"/><path class="cls-66" d="M24.39,23.8c2.34,0,4.23-1.92,4.23-4.29s-1.9-4.29-4.23-4.29-4.23,1.92-4.23,4.29,1.9,4.29,4.23,4.29Z"/><path class="cls-70" d="M24.67,24.29c2.34,0,4.23-1.92,4.23-4.29s-1.9-4.29-4.23-4.29-4.23,1.92-4.23,4.29,1.9,4.29,4.23,4.29Z"/><path class="cls-72" d="M24.95,24.78c2.34,0,4.23-1.92,4.23-4.29s-1.9-4.29-4.23-4.29-4.23,1.92-4.23,4.29,1.9,4.29,4.23,4.29Z"/><path class="cls-62" d="M25.21,25.27c2.34,0,4.23-1.92,4.23-4.29s-1.9-4.29-4.23-4.29-4.23,1.92-4.23,4.29,1.9,4.29,4.23,4.29Z"/><path class="cls-61" d="M25.49,25.76c2.34,0,4.23-1.92,4.23-4.29s-1.9-4.29-4.23-4.29-4.23,1.92-4.23,4.29,1.9,4.29,4.23,4.29Z"/><path class="cls-68" d="M25.76,26.26c2.34,0,4.23-1.92,4.23-4.29s-1.9-4.29-4.23-4.29-4.23,1.92-4.23,4.29,1.9,4.29,4.23,4.29Z"/><path class="cls-67" d="M26.03,26.74c2.34,0,4.23-1.92,4.23-4.29s-1.9-4.29-4.23-4.29-4.23,1.92-4.23,4.29,1.9,4.29,4.23,4.29Z"/><path class="cls-65" d="M26.3,27.24c2.34,0,4.23-1.92,4.23-4.29s-1.9-4.29-4.23-4.29-4.23,1.92-4.23,4.29,1.9,4.29,4.23,4.29Z"/><path class="cls-83" d="M26.58,27.73c2.34,0,4.23-1.92,4.23-4.29s-1.9-4.29-4.23-4.29-4.23,1.92-4.23,4.29,1.9,4.29,4.23,4.29Z"/><path class="cls-60" d="M26.85,28.22c2.34,0,4.23-1.92,4.23-4.29s-1.9-4.29-4.23-4.29-4.23,1.92-4.23,4.29,1.9,4.29,4.23,4.29Z"/><path class="cls-59" d="M27.12,28.71c2.34,0,4.23-1.92,4.23-4.29s-1.9-4.29-4.23-4.29-4.23,1.92-4.23,4.29,1.9,4.29,4.23,4.29Z"/><path class="cls-76" d="M27.4,29.2c2.34,0,4.23-1.92,4.23-4.29s-1.9-4.29-4.23-4.29-4.23,1.92-4.23,4.29,1.9,4.29,4.23,4.29Z"/><path class="cls-75" d="M27.67,29.69c2.34,0,4.23-1.92,4.23-4.29s-1.9-4.29-4.23-4.29-4.23,1.92-4.23,4.29,1.9,4.29,4.23,4.29Z"/></svg>