<svg width="1075" height="197" viewBox="0 0 1075 197" fill="none" xmlns="http://www.w3.org/2000/svg">
    <g clip-path="url(#clip0_1343_19352)">
        <path d="M211.06 0.0131836H200.108H179.831V21.9222H200.108V193.4H222.012V0.0131836H211.06Z" fill="#F5F5F5"/>
        <path d="M378.03 126.056C378.03 79.8027 352.342 52.2153 312.862 52.2153C273.383 52.2153 247.424 78.452 247.424 124.7C247.424 170.949 273.112 196.106 312.862 196.106C344.227 196.106 367.756 177.982 374.245 152.83H349.908C344.498 164.462 333.415 174.739 312.862 174.739C286.362 174.739 272.845 157.971 270.14 133.898H378.03V126.056ZM270.411 113.073C273.654 89.8131 287.717 73.3113 312.862 73.3113C338.008 73.3113 351.258 89.542 354.505 113.073H270.411Z" fill="#F5F5F5"/>
        <path d="M464.284 52.2153C424.533 52.2153 398.845 78.452 398.845 124.7C398.845 170.949 424.533 196.106 464.284 196.106C504.034 196.106 529.451 171.762 529.451 124.7C529.451 77.6389 503.763 52.2153 464.284 52.2153ZM464.284 175.281C435.891 175.281 420.477 153.101 420.477 124.434C420.477 95.7669 435.891 72.7737 464.284 72.7737C492.676 72.7737 507.819 95.2248 507.819 124.434C507.819 153.643 492.947 175.281 464.284 175.281Z" fill="#F5F5F5"/>
        <path d="M113.856 0.0129395H92.5445H69.2369L30.5113 113.073H54.0944L85.4633 20.8378H96.8213L128.186 113.073H84.9484H54.0944L46.7964 133.898H91.98H135.217L155.495 193.4H179.832L113.856 0.0129395Z" fill="#F5F5F5"/>
        <path d="M2.99048 193.401H26.5149L46.7967 133.898H23.3762L2.99048 193.401Z" fill="#F5F5F5"/>
        <path d="M7.13582 113.073L0.000366211 133.898H23.3757L30.5112 113.073H7.13582Z" fill="#F5F5F5"/>
    </g>
    <path d="M679.203 173.898C700.978 173.898 728.787 167.602 728.787 137.694C728.787 113.296 707.012 110.148 688.123 106.738C657.429 102.54 609.682 98.8672 609.682 54.5307C609.682 7.57084 651.657 1.01218 680.515 1.01218C724.327 1.01218 745.839 22.7869 750.299 55.8425H728C725.376 34.5925 712.521 21.2128 680.515 21.2128C651.395 21.2128 631.981 30.9196 631.981 54.0061C631.981 81.0277 671.595 81.5524 687.599 84.7005C717.768 90.2098 751.349 95.9814 751.349 137.694C751.349 188.327 705.7 194.099 679.203 194.099C635.129 194.099 613.879 172.849 610.469 139.531H632.768C634.08 159.994 646.673 173.898 679.203 173.898ZM772.605 192V4.68503H845.537C890.66 4.68503 921.617 30.9196 921.617 98.6049C921.617 166.028 888.562 192 842.389 192H772.605ZM795.167 171.799H841.077C874.133 171.799 899.055 150.025 899.055 98.8672C899.055 46.1357 877.805 24.8857 841.602 24.8857H795.167V171.799ZM942.023 192V4.42268H964.585V86.7993H977.177L1045.39 4.42268H1073.2L997.64 97.2931L1074.77 192H1046.96L976.128 107H964.585V192H942.023Z" fill="#18e48f"/>
    <defs>
        <clipPath id="clip0_1343_19352">
            <rect width="529.45" height="196.093" fill="white" transform="translate(0 0.0136719)"/>
        </clipPath>
    </defs>
</svg>