<svg width="509" height="79" viewBox="0 0 509 79" fill="none" xmlns="http://www.w3.org/2000/svg">
<path d="M0 18.0169C0 10.8279 5.82786 5 13.0169 5H58.9827C66.1717 5 71.9996 10.8279 71.9996 18.0169V63.9827C71.9996 71.1717 66.1717 76.9996 58.9827 76.9996H47.2168C45.4214 76.9996 43.9659 75.5441 43.9659 73.7486V39.5357C43.9659 35.9447 41.0548 33.0337 37.4639 33.0337H3.25096C1.45551 33.0337 0 31.5782 0 29.7828V18.0169Z" fill="#0B0605"/>
<path d="M28.0337 55.4677C28.0337 51.8768 25.1227 48.9658 21.5318 48.9658H3.25096C1.45551 48.9658 0 50.4213 0 52.2167V63.9826C0 71.1716 5.82785 76.9995 13.0169 76.9995H24.7828C26.5782 76.9995 28.0337 75.544 28.0337 73.7485V55.4677Z" fill="#0B0605"/>
<path d="M107.731 77.0004V4.98881H137.617C154.141 4.98881 164.749 14.3728 164.749 29.0607C164.749 43.8506 154.141 53.4385 137.617 53.4385H123.439V77.0004H107.731ZM137.617 39.7706C144.553 39.7706 149.041 35.6906 149.041 29.3667C149.041 23.0427 144.553 18.9627 137.617 18.9627H123.439V39.7706H137.617ZM169.359 77.0004V21.9207H184.353V28.5507H184.965C186.801 23.4507 190.779 20.6967 196.491 20.6967H204.141L205.365 36.2006H194.451C187.923 36.2006 184.353 39.0566 184.353 44.3606V77.0004H169.359ZM233.623 78.2244C216.997 78.2244 205.573 66.4944 205.573 49.4605C205.573 32.4266 216.997 20.6967 233.623 20.6967C250.249 20.6967 261.673 32.4266 261.673 49.4605C261.673 66.4944 250.249 78.2244 233.623 78.2244ZM233.623 65.7805C241.681 65.7805 246.577 59.6605 246.577 49.4605C246.577 39.2606 241.681 33.1406 233.623 33.1406C225.565 33.1406 220.669 39.2606 220.669 49.4605C220.669 59.6605 225.565 65.7805 233.623 65.7805ZM279.291 77.0004L259.809 21.9207H274.803L288.471 63.2305H289.083L302.649 21.9207H316.929L297.447 77.0004H279.291ZM332.413 77.8164C321.601 77.8164 314.563 71.0844 314.563 60.6805C314.563 51.8065 320.581 45.9926 331.189 44.7686L345.774 43.1366C348.528 42.7286 349.854 41.5046 349.854 39.2606C349.854 35.0786 346.692 32.5286 341.593 32.5286C336.493 32.5286 333.025 35.0786 332.413 39.2606H317.011C318.133 27.7347 327.619 20.6967 341.797 20.6967C356.382 20.6967 364.848 27.9387 364.848 40.4846V77.0004H349.854V69.8604H349.242C346.488 74.5524 339.655 77.8164 332.413 77.8164ZM337.309 66.1885C343.734 66.1885 349.854 60.5785 349.854 54.0505V52.1125C349.14 52.6225 348.324 52.8265 347.304 52.9285L336.391 54.1525C332.413 54.5605 330.169 56.7025 330.169 60.0685C330.169 63.8425 332.923 66.1885 337.309 66.1885ZM371.083 77.0004V1.92882L386.077 0.704834V29.7747H386.689C390.055 23.9607 395.461 21.0027 403.111 21.0027C417.595 21.0027 427.081 32.3246 427.081 49.4605C427.081 66.5964 417.595 78.0204 403.111 78.0204C395.461 78.0204 390.055 75.0624 386.689 69.1464H386.077V77.0004H371.083ZM398.929 33.4466C391.177 33.4466 386.077 39.7706 386.077 49.4605C386.077 59.2525 391.177 65.5765 398.929 65.5765C406.783 65.5765 411.781 59.2525 411.781 49.4605C411.781 39.7706 406.783 33.4466 398.929 33.4466ZM431.649 77.0004V1.92882L446.643 0.704834V77.0004H431.649ZM478.261 78.2244C461.941 78.2244 451.129 66.6984 451.129 49.4605C451.129 32.2226 461.941 20.6967 478.261 20.6967C496.824 20.6967 507.738 34.3646 505.086 54.3565H466.531C467.755 61.9045 471.937 66.1885 478.567 66.1885C484.177 66.1885 488.053 63.7405 489.685 59.2525H504.984C502.026 71.3904 492.54 78.2244 478.261 78.2244ZM466.531 44.1566H490.602C489.379 36.7106 485.197 32.7326 478.567 32.7326C472.039 32.7326 467.857 36.8126 466.531 44.1566Z" fill="#0B0605"/>
</svg>
