<?xml version="1.0" standalone="no"?>
<!DOCTYPE svg PUBLIC "-//W3C//DTD SVG 20010904//EN"
 "http://www.w3.org/TR/2001/REC-SVG-20010904/DTD/svg10.dtd">
<svg version="1.0" xmlns="http://www.w3.org/2000/svg"
 width="1024.000000pt" height="1024.000000pt" viewBox="0 0 1024.000000 1024.000000"
 preserveAspectRatio="xMidYMid meet">

<g transform="translate(0.000000,1024.000000) scale(0.100000,-0.100000)"
fill="#000000" stroke="none">
<path d="M2636 9797 c10 -15 24 -27 31 -27 7 0 16 -7 21 -16 5 -9 11 -14 13
-13 2 2 29 -11 59 -28 30 -17 84 -43 120 -56 36 -14 117 -46 180 -71 63 -24
144 -52 180 -61 36 -9 79 -21 96 -26 17 -5 39 -9 50 -9 28 0 188 -66 192 -79
4 -11 -20 -14 -93 -11 -46 1 -328 -17 -455 -29 -85 -9 -225 -37 -317 -64 -26
-8 -73 -20 -103 -27 -53 -11 -81 -19 -125 -36 -11 -4 -25 -6 -32 -5 -6 1 -14
-3 -18 -9 -3 -5 -15 -10 -26 -10 -10 0 -27 -4 -37 -9 -37 -19 -69 -31 -112
-42 -25 -6 -61 -19 -80 -29 -19 -10 -39 -19 -45 -20 -17 -4 -39 -12 -81 -31
-22 -10 -65 -28 -95 -39 -69 -28 -233 -112 -237 -122 -2 -4 -12 -8 -23 -8 -10
0 -19 -4 -19 -10 0 -5 -3 -9 -7 -8 -11 3 -107 -44 -111 -54 -2 -4 -12 -8 -23
-8 -10 0 -19 -4 -19 -9 0 -9 -54 -35 -66 -31 -4 1 -10 -2 -13 -7 -3 -4 -16
-14 -29 -21 -46 -26 -142 -73 -147 -73 -3 1 -14 -8 -25 -19 -12 -12 -25 -18
-30 -15 -6 4 -10 2 -10 -3 0 -8 -73 -46 -90 -47 -3 -1 -23 -12 -45 -26 -22
-14 -58 -32 -80 -40 -22 -7 -51 -20 -65 -29 -34 -22 -113 -56 -122 -52 -5 1
-8 -2 -8 -8 0 -12 4 -12 56 0 43 10 117 22 147 23 9 1 17 5 17 9 0 4 3 7 8 6
4 -1 31 4 60 10 29 7 56 11 60 11 4 -1 9 0 12 1 3 1 30 8 60 15 77 18 212 55
230 62 8 3 21 5 28 4 8 -1 20 3 28 10 7 6 21 9 29 5 8 -3 15 -1 15 4 0 6 11
10 24 10 14 0 28 5 31 11 4 5 17 9 28 8 12 -1 40 3 61 9 22 6 43 9 47 6 4 -2
10 0 14 6 4 6 11 8 16 4 5 -3 16 0 24 6 8 6 19 9 25 5 5 -3 10 -2 10 4 0 6 7
8 15 5 8 -4 22 -1 30 6 9 7 17 11 19 9 5 -6 -204 -195 -263 -238 -87 -64 -126
-95 -153 -123 -14 -16 -29 -28 -33 -28 -4 0 -18 -10 -31 -22 -45 -44 -61 -58
-67 -58 -10 0 -148 -132 -321 -308 -89 -90 -189 -191 -223 -225 -34 -34 -60
-63 -58 -65 2 -2 38 12 80 32 42 20 82 36 90 36 7 0 15 4 17 9 2 4 39 27 83
50 44 23 90 49 102 58 19 12 23 13 24 2 0 -8 4 -4 10 9 5 13 13 20 19 17 5 -3
10 -1 10 4 0 6 7 11 15 11 7 0 19 8 24 18 6 9 11 14 11 9 0 -8 113 53 118 65
2 5 8 6 13 2 5 -3 9 0 9 5 0 6 8 11 19 11 10 0 24 7 31 15 7 9 15 13 17 11 3
-3 -34 -68 -81 -146 -47 -77 -86 -144 -86 -147 0 -4 -29 -56 -64 -117 -75
-131 -243 -460 -306 -598 -24 -54 -48 -98 -52 -98 -5 0 -7 -4 -3 -9 3 -5 0
-15 -7 -23 -7 -7 -14 -20 -15 -28 -6 -44 -61 -199 -68 -193 -4 5 -5 2 -1 -4 4
-7 2 -23 -5 -35 -10 -20 -7 -19 20 6 17 17 31 34 31 39 0 4 18 30 40 56 22 26
40 52 40 58 0 7 11 20 25 31 14 11 25 24 25 29 0 5 13 24 30 43 16 19 29 38
30 43 0 4 11 20 24 35 14 15 25 30 26 34 0 4 10 18 23 32 54 58 67 75 67 85 0
6 5 11 10 11 6 0 10 5 10 11 0 9 52 79 85 115 6 6 25 28 43 48 18 21 36 35 39
32 4 -3 -3 -30 -14 -59 -12 -28 -28 -77 -37 -107 -28 -99 -44 -153 -74 -255
-52 -171 -60 -222 -86 -557 -25 -310 -20 -618 10 -618 9 0 14 12 14 33 0 17 9
47 20 65 11 18 20 45 20 60 0 15 5 44 11 65 9 33 12 36 25 22 11 -11 12 -19 4
-34 -5 -11 -10 -36 -10 -55 0 -20 -4 -36 -8 -36 -8 0 -31 -111 -58 -290 -25
-162 -33 -200 -78 -374 -14 -54 -31 -105 -36 -111 -6 -7 -10 -17 -9 -21 1 -5
-1 -16 -4 -24 -3 -8 -16 -49 -28 -90 -11 -41 -30 -92 -40 -112 -37 -72 1 -48
57 36 31 47 61 83 66 80 5 -3 8 0 7 7 -4 22 23 69 38 69 8 0 11 4 8 10 -3 5 5
25 19 43 15 19 26 39 26 45 0 7 4 12 8 12 4 0 26 34 47 76 22 41 47 88 55 103
8 15 30 61 49 102 30 66 110 237 168 359 l22 45 1 -50 c0 -27 5 -79 10 -115
20 -144 51 -810 38 -827 -5 -7 -30 -22 -55 -34 -48 -23 -196 -166 -243 -234
-15 -22 -37 -60 -50 -85 -12 -25 -26 -47 -31 -50 -5 -3 -10 -15 -12 -25 -2
-11 -11 -37 -20 -59 -9 -21 -17 -44 -17 -50 0 -7 -5 -17 -12 -24 -7 -7 -9 -12
-5 -12 4 0 1 -15 -6 -33 -8 -18 -17 -59 -22 -92 -4 -33 -12 -66 -17 -72 -12
-15 -3 -256 14 -348 6 -33 12 -71 14 -84 9 -75 82 -235 150 -333 50 -70 136
-158 154 -158 5 0 13 -24 20 -52 24 -101 139 -404 190 -497 28 -52 47 -97 43
-101 -4 -4 -35 -16 -68 -27 -238 -79 -506 -223 -629 -338 -18 -16 -43 -46 -56
-65 -13 -19 -28 -38 -33 -41 -5 -3 -8 -8 -7 -10 1 -2 -5 -27 -13 -55 -15 -49
-13 -137 3 -159 4 -5 10 -25 13 -43 10 -52 68 -132 148 -203 91 -81 124 -103
141 -93 7 4 10 4 6 -1 -14 -15 59 -57 246 -139 32 -14 62 -23 67 -20 5 3 9 1
9 -4 0 -13 78 -44 91 -37 5 4 9 2 9 -3 0 -8 212 -85 265 -97 29 -6 463 -113
510 -126 22 -6 69 -16 105 -23 36 -7 72 -15 80 -18 14 -6 91 -18 154 -23 16
-2 32 -9 36 -15 5 -8 18 -10 38 -5 18 3 33 2 37 -4 3 -6 26 -11 50 -11 24 0
47 -5 50 -10 4 -7 24 -8 51 -4 30 4 44 3 44 -5 0 -7 21 -11 54 -11 30 0 58 -4
61 -10 3 -5 42 -10 86 -10 43 0 79 -4 79 -9 0 -5 39 -9 87 -10 49 0 89 -4 91
-10 2 -6 30 -8 72 -4 62 5 68 4 74 -14 6 -19 13 -20 116 -15 79 3 110 2 110
-7 0 -14 131 -15 219 -1 63 11 63 11 91 -19 l29 -30 885 2 886 1 0 23 c0 23 0
23 103 16 91 -5 105 -4 110 11 4 11 14 15 29 12 13 -3 58 -8 101 -11 65 -5 77
-3 77 9 0 12 9 15 43 11 159 -17 157 -17 157 6 0 20 4 21 56 16 43 -4 56 -2
61 9 4 10 15 13 37 10 54 -9 216 5 216 19 0 9 27 13 97 14 76 0 99 4 106 16 6
11 22 15 54 13 28 -1 48 3 51 10 2 8 17 10 43 6 22 -4 44 -2 51 4 7 5 40 12
73 15 33 3 74 8 90 11 17 2 51 8 78 12 26 3 47 10 47 14 0 6 26 12 115 24 11
1 27 5 35 9 8 3 41 8 72 12 32 4 60 11 64 16 3 5 9 7 13 5 7 -5 154 29 170 38
4 3 23 8 42 11 47 8 269 75 294 89 11 6 25 11 30 12 6 0 27 8 49 17 21 9 43
17 48 17 5 0 19 5 31 12 12 7 29 13 37 14 8 2 23 7 35 13 11 6 63 29 115 52
113 48 182 86 270 147 75 53 170 141 170 160 0 6 4 12 10 12 5 0 12 11 16 25
3 14 9 25 13 25 13 0 34 112 32 164 -5 107 -119 255 -276 358 -133 87 -412
209 -506 221 -19 2 -42 7 -52 11 -10 5 -23 3 -32 -4 -13 -11 -14 -10 -9 4 6
15 -5 21 -29 17 -9 -2 114 182 126 187 4 2 7 10 7 18 0 8 5 14 10 14 6 0 10 5
10 12 0 6 6 19 14 27 23 27 132 244 168 337 62 158 95 270 126 429 6 28 15 77
22 110 6 33 16 79 21 102 5 23 9 58 9 77 0 19 4 37 8 40 5 3 9 69 10 148 1 79
5 186 8 239 4 66 3 98 -5 103 -7 4 -11 39 -11 87 0 43 -4 79 -8 79 -5 0 -13
30 -20 67 -12 76 -18 105 -27 135 -14 43 -53 253 -49 260 3 5 1 8 -4 8 -5 0
-9 6 -10 13 -1 20 -9 47 -38 132 -66 192 -117 331 -132 359 -9 17 -17 33 -17
36 -4 23 -140 280 -148 280 -6 0 -8 3 -4 6 3 3 1 11 -4 18 -5 6 -24 34 -42 61
-17 28 -37 57 -44 65 -6 8 -39 51 -72 95 -72 97 -251 273 -341 337 -69 49
-220 128 -244 128 -8 0 -16 5 -18 10 -4 12 -146 30 -242 30 -135 0 -307 -77
-466 -210 -102 -86 -164 -130 -182 -130 -7 0 -24 -9 -38 -20 -14 -11 -33 -20
-42 -20 -10 0 -18 -4 -18 -10 0 -5 -9 -10 -19 -10 -11 0 -21 -3 -23 -7 -1 -5
-31 -23 -65 -41 -60 -32 -65 -33 -139 -26 l-76 7 5 36 c4 20 11 142 17 271 6
129 16 244 21 255 6 12 11 70 13 130 1 61 5 229 8 375 5 201 3 289 -8 363 -7
54 -17 103 -20 109 -4 6 -3 8 4 4 23 -14 98 -171 189 -396 7 -19 12 -38 11
-41 -2 -3 2 -12 8 -20 6 -8 17 -31 23 -51 7 -21 17 -38 22 -38 6 0 9 -8 7 -17
-1 -10 0 -22 3 -28 4 -5 15 -46 25 -90 l19 -80 5 60 c9 106 -7 326 -35 475
-15 80 -29 148 -30 151 -2 3 -6 16 -9 30 -12 59 -55 204 -82 279 -45 123 -157
365 -181 393 -9 9 -12 17 -7 17 5 0 2 5 -6 10 -8 5 -15 13 -15 18 0 5 -8 20
-18 33 -9 13 -37 51 -61 84 -45 62 -105 128 -167 181 -35 31 -139 89 -139 77
0 -3 -6 -1 -12 4 -7 5 -31 15 -53 22 -39 12 -40 14 -57 83 -31 126 -151 303
-317 468 -146 144 -189 181 -311 260 -8 5 -35 23 -60 40 -25 16 -50 30 -57 30
-6 0 -13 3 -15 8 -1 4 -37 21 -78 37 -41 17 -91 38 -110 47 -19 10 -42 18 -52
18 -10 0 -18 4 -18 8 0 8 -85 31 -136 37 -34 3 -30 -12 5 -20 16 -3 73 -45
127 -93 55 -48 131 -112 169 -144 114 -92 255 -249 255 -283 0 -6 -122 74
-130 85 -6 9 -240 135 -289 157 -46 20 -261 93 -261 88 0 -1 -35 8 -77 21 -43
13 -83 24 -90 24 -6 0 -24 5 -40 12 -15 6 -36 10 -45 9 -9 -1 -30 4 -45 12
-15 8 -93 22 -173 32 -80 10 -149 22 -155 27 -5 4 -28 8 -52 8 -24 0 -43 5
-43 10 0 6 -30 10 -69 10 -39 0 -72 4 -75 9 -3 4 -47 11 -98 15 -51 4 -122 11
-158 15 -457 63 -571 79 -600 87 -25 7 -47 10 -110 19 -19 2 -53 7 -74 11
l-39 7 19 -26z m1283 -582 c-3 -2 -72 -20 -155 -40 -82 -19 -158 -39 -169 -44
-11 -6 -58 -21 -103 -36 -143 -44 -454 -177 -482 -205 -5 -5 -129 -65 -145
-70 -5 -2 -16 -10 -23 -17 -7 -7 -20 -13 -28 -13 -8 0 -14 -4 -14 -10 0 -5 -3
-9 -7 -9 -5 1 -11 0 -15 -1 -5 -1 -11 -3 -15 -4 -19 -5 -69 -32 -80 -43 -7 -6
-26 -14 -43 -18 -16 -4 -30 -11 -30 -16 0 -6 -4 -7 -10 -4 -5 3 -10 3 -10 -2
0 -4 -15 -14 -32 -22 -18 -8 -35 -17 -38 -20 -3 -3 -21 -15 -40 -25 -19 -11
-39 -24 -45 -28 -24 -20 -135 -88 -144 -88 -5 0 -11 -3 -13 -7 -1 -5 -19 -17
-38 -27 -50 -28 -171 -116 -197 -144 -13 -12 -23 -20 -23 -17 0 19 -227 -193
-304 -285 -44 -52 -37 -34 28 65 109 168 220 318 296 400 26 28 67 72 91 100
118 134 289 282 440 382 53 34 101 63 106 63 5 0 40 16 78 36 84 44 71 24 -40
-59 -71 -54 -145 -114 -227 -186 -38 -33 -35 -44 7 -27 19 8 35 13 35 11 0 -8
87 33 140 67 61 38 206 103 223 100 4 -1 7 3 7 9 0 5 4 8 8 5 5 -3 20 1 35 9
15 8 27 12 27 9 0 -2 13 2 30 11 16 8 32 15 35 15 15 -1 63 13 86 25 14 8 36
16 50 18 13 3 35 9 49 15 14 5 45 15 70 22 25 7 61 18 80 25 44 16 238 51 355
65 50 5 101 12 115 14 41 6 84 6 79 1z m631 -224 c0 -4 -26 -12 -57 -20 -86
-20 -429 -135 -503 -169 -36 -16 -83 -35 -105 -42 -22 -7 -44 -16 -50 -20 -5
-5 -14 -9 -20 -10 -5 -1 -29 -10 -52 -21 -23 -10 -45 -19 -48 -19 -23 0 -473
-237 -495 -260 -3 -3 -18 -12 -34 -20 -56 -29 -66 -35 -66 -42 0 -5 -6 -8 -14
-8 -8 0 -16 -3 -18 -7 -4 -10 -85 -73 -92 -73 -3 0 -14 -6 -23 -14 -10 -8 -64
-49 -120 -91 -127 -95 -342 -283 -406 -356 -53 -59 -52 -54 7 36 124 190 448
527 710 737 124 99 130 112 49 102 -32 -3 -69 -11 -83 -16 -14 -5 -34 -12 -44
-14 -11 -2 -23 -9 -28 -16 -4 -7 -8 -9 -8 -5 0 9 -74 -31 -135 -73 -22 -15
-71 -48 -110 -73 -66 -43 -228 -184 -305 -265 -65 -69 -165 -178 -180 -198 -8
-10 -48 -61 -89 -113 -83 -106 -177 -243 -186 -272 -4 -10 -11 -19 -16 -19 -5
0 -9 -3 -9 -8 0 -4 -18 -41 -41 -82 -44 -83 -44 -60 1 35 15 33 35 79 44 102
8 23 25 59 36 80 11 21 20 41 20 46 0 5 7 15 15 23 8 9 15 24 15 35 0 10 5 19
10 19 6 0 10 5 10 11 0 7 7 17 16 23 8 6 16 18 17 27 2 8 8 22 15 30 7 8 48
68 91 134 44 66 93 136 110 155 16 19 28 36 26 38 -6 6 -122 -80 -170 -125
-77 -73 -246 -275 -346 -415 -54 -75 -154 -240 -197 -323 -43 -86 -104 -216
-106 -229 -5 -30 -40 -106 -49 -106 -11 0 -9 7 33 120 17 47 35 99 40 115 4
17 23 64 42 105 20 41 48 102 63 135 29 63 116 213 147 254 10 13 15 27 12 32
-3 5 -1 9 4 9 5 0 32 31 61 69 98 133 330 378 417 443 17 13 44 35 60 49 74
68 144 126 180 152 21 15 66 47 100 72 65 47 110 69 125 59 5 -3 9 0 9 7 0 7
3 9 6 6 4 -3 15 -2 25 4 21 11 25 -1 7 -19 -8 -8 -8 -12 -1 -12 6 0 13 7 17
15 3 8 12 12 19 9 14 -5 52 12 152 65 21 11 47 21 56 21 10 0 19 5 21 10 2 6
13 12 26 13 12 0 22 4 22 8 0 8 68 36 102 43 13 2 45 13 71 25 26 11 51 20 55
20 4 -1 9 0 12 1 6 2 27 7 60 14 14 3 54 13 88 22 35 8 66 13 68 11 3 -2 -33
-22 -78 -44 -46 -22 -114 -58 -152 -81 l-69 -40 34 -7 c18 -4 42 -13 51 -19
15 -9 21 -8 28 4 7 11 10 11 10 2 0 -7 4 -10 10 -7 10 6 27 10 85 21 17 2 48
10 70 16 22 6 50 12 63 14 12 2 32 6 45 8 12 2 49 10 82 19 33 9 83 21 110 27
28 7 59 16 70 20 11 5 38 11 60 14 22 3 69 12 105 19 69 16 171 32 260 43 30
3 56 7 57 8 6 5 73 3 73 -3z m70 -237 c0 -3 -24 -16 -52 -29 -52 -24 -128 -65
-138 -75 -3 -3 -40 -23 -83 -45 -115 -59 -166 -111 -90 -90 33 9 40 10 113 19
30 4 71 11 90 16 19 5 46 11 60 14 48 8 156 41 308 91 83 28 152 49 152 46 -1
-7 -247 -142 -300 -164 -19 -9 -57 -25 -85 -38 -27 -12 -56 -22 -62 -22 -7 0
-13 -4 -13 -8 0 -4 -12 -10 -27 -13 -73 -17 -143 -41 -143 -48 0 -5 -4 -7 -9
-3 -5 3 -30 -6 -55 -20 -25 -14 -46 -23 -46 -19 0 4 -7 1 -15 -6 -8 -7 -15 -9
-15 -5 0 4 -7 2 -15 -5 -8 -7 -15 -10 -15 -6 0 3 -22 -3 -50 -14 -27 -11 -50
-18 -50 -15 0 2 -21 -9 -47 -25 -26 -16 -48 -28 -51 -26 -6 7 21 43 33 44 5 0
11 6 13 14 3 10 1 10 -5 1 -5 -7 -14 -9 -22 -4 -8 5 -28 5 -45 -1 -17 -5 -39
-11 -49 -13 -9 -2 -23 -7 -30 -12 -6 -4 -15 -8 -19 -9 -5 -1 -10 -3 -13 -4 -3
-1 -9 -4 -15 -5 -5 -1 -12 -4 -15 -5 -3 -1 -8 -3 -12 -4 -13 -3 -308 -149
-313 -155 -3 -3 -32 -19 -65 -36 -33 -16 -66 -36 -73 -42 -7 -7 -20 -13 -28
-13 -8 0 -14 -4 -14 -10 0 -5 -7 -10 -15 -10 -8 0 -15 -4 -15 -10 0 -5 -3 -9
-7 -8 -10 2 -51 -22 -156 -90 -45 -30 -92 -58 -104 -62 -13 -5 -23 -14 -23
-20 0 -5 -4 -10 -9 -10 -20 0 -289 -190 -380 -268 -28 -24 -51 -42 -51 -39 0
5 330 310 420 387 35 30 71 62 79 71 75 77 462 356 598 431 18 10 65 39 105
64 76 49 207 114 230 114 7 0 35 12 62 26 26 14 51 23 54 19 4 -3 0 -10 -8
-15 -8 -5 -12 -12 -8 -15 3 -4 16 3 27 14 26 26 32 27 24 4 -6 -16 -4 -16 15
1 12 11 22 16 22 11 0 -4 7 -2 15 5 8 6 18 9 24 6 5 -3 11 -3 13 1 2 6 274
103 396 142 1 1 2 -1 2 -5z m-1695 -14 c-3 -5 -10 -10 -16 -10 -5 0 -9 5 -9
10 0 6 7 10 16 10 8 0 12 -4 9 -10z m2295 -594 c-16 -71 -157 -288 -304 -466
-52 -63 -91 -116 -87 -118 19 -7 232 110 289 158 8 8 12 8 12 0 0 -6 5 -8 11
-5 6 4 8 9 5 12 -3 3 12 17 32 30 61 42 252 219 252 235 0 5 5 8 11 8 7 0 9
-19 5 -57 -3 -32 -8 -93 -11 -136 -3 -43 -8 -84 -12 -90 -4 -7 -11 -37 -15
-67 -7 -51 -30 -165 -58 -285 -7 -27 -16 -54 -21 -60 -5 -5 -9 -22 -9 -37 0
-16 -4 -36 -9 -46 -10 -19 -55 -178 -81 -290 -12 -49 -14 -72 -6 -69 14 4 156
213 192 282 14 28 32 57 40 66 8 8 14 21 14 27 0 7 4 12 9 12 5 0 11 8 15 18
3 9 10 24 15 32 5 8 19 32 31 53 12 21 24 36 26 34 3 -2 -4 -45 -16 -96 -11
-50 -20 -108 -20 -130 0 -21 -6 -54 -14 -72 -27 -68 -29 -74 -32 -84 -1 -5
-21 -57 -44 -115 -23 -58 -47 -124 -55 -148 -7 -24 -19 -49 -25 -57 -7 -8 -9
-15 -5 -15 4 0 2 -7 -5 -15 -7 -8 -9 -15 -5 -15 4 0 3 -6 -3 -12 -6 -7 -24
-52 -40 -99 -17 -48 -37 -97 -45 -110 -8 -13 -18 -35 -22 -49 -14 -44 183 208
218 280 6 14 14 27 17 30 15 14 72 104 109 173 23 42 44 77 46 77 2 0 2 -15 0
-32 -2 -18 -6 -73 -10 -123 -7 -103 -46 -316 -76 -413 -26 -85 -116 -334 -140
-387 -10 -22 -36 -85 -59 -140 -23 -55 -54 -128 -71 -163 -16 -35 -29 -67 -29
-73 0 -5 -6 -20 -14 -32 -19 -31 -29 -67 -18 -67 12 0 188 198 262 295 33 44
65 82 70 83 6 2 10 8 10 13 0 6 18 37 40 70 22 33 40 64 40 69 0 5 4 10 8 12
4 2 25 31 46 66 20 34 40 62 43 62 3 0 2 -15 -1 -32 -4 -18 -9 -44 -12 -58 -3
-14 -7 -33 -10 -43 -3 -10 -12 -55 -19 -100 -14 -81 -50 -237 -62 -267 -3 -8
-7 -18 -7 -21 -2 -15 -139 -115 -219 -161 -49 -27 -86 -52 -84 -55 3 -2 33 13
68 34 76 46 153 83 174 83 8 0 20 9 27 20 20 32 25 24 18 -27 -8 -54 -29 -105
-41 -97 -4 2 -11 -1 -16 -8 -4 -7 -30 -31 -58 -53 -27 -21 -52 -42 -55 -45 -3
-3 -31 -24 -62 -47 -55 -42 -114 -95 -110 -101 1 -1 -1 -14 -4 -28 -5 -19 -1
-31 14 -46 17 -18 24 -19 53 -9 19 6 38 11 43 10 5 0 12 4 15 9 8 13 118 82
130 82 5 0 12 6 14 13 27 65 -28 -189 -58 -273 -9 -25 -18 -61 -21 -80 -2 -19
-9 -50 -14 -70 -17 -66 -24 -160 -11 -160 11 0 37 52 129 250 14 30 26 62 28
70 2 8 8 16 14 18 5 2 8 8 4 13 -3 5 0 9 7 9 7 0 10 3 6 6 -3 4 7 31 23 61 17
31 27 59 24 64 -3 5 -2 9 3 9 8 0 41 63 48 90 9 39 18 60 27 60 6 0 8 7 4 15
-3 8 -1 15 4 15 4 0 14 17 21 38 6 20 19 51 27 67 9 17 17 32 17 35 9 34 76
169 87 176 4 3 7 -44 7 -104 0 -60 3 -115 5 -123 3 -8 12 -102 21 -209 8 -107
20 -223 26 -257 6 -35 8 -70 5 -79 -4 -10 -1 -14 6 -12 19 6 37 88 48 208 11
125 28 237 40 265 9 20 43 271 55 410 13 151 28 162 67 53 14 -40 38 -104 53
-143 15 -38 42 -115 60 -171 17 -55 41 -113 51 -129 10 -16 26 -51 34 -79 17
-55 46 -79 36 -30 -3 16 -8 74 -11 129 -3 55 -10 145 -15 200 -5 55 -12 137
-15 183 -5 81 -5 82 18 82 28 0 114 -31 242 -88 50 -22 160 -61 245 -86 85
-26 184 -56 220 -68 186 -59 380 -73 420 -30 22 23 26 68 9 105 -17 38 -61 57
-187 82 -118 24 -347 91 -498 146 -44 16 -92 29 -107 29 -30 0 -36 18 -9 26 9
3 49 19 87 36 107 46 181 93 334 211 30 23 70 53 89 66 205 141 551 35 798
-245 133 -151 243 -321 342 -525 154 -319 214 -501 281 -859 39 -206 48 -687
18 -885 -9 -55 -19 -118 -22 -140 -9 -56 -46 -218 -53 -230 -3 -5 -7 -16 -8
-25 -7 -55 -124 -344 -170 -420 -11 -19 -45 -75 -74 -125 -74 -125 -170 -251
-282 -375 -94 -102 -232 -235 -293 -282 -16 -12 -32 -25 -35 -28 -11 -13 -99
-70 -108 -70 -6 0 -12 -7 -16 -15 -3 -8 -12 -15 -20 -15 -8 0 -21 -6 -28 -12
-19 -18 -68 -47 -100 -61 -16 -6 -28 -15 -28 -20 0 -4 -4 -6 -9 -2 -5 3 -12 1
-16 -5 -8 -13 -76 -42 -83 -35 -3 2 -10 -2 -16 -9 -6 -8 -45 -28 -86 -46 -41
-17 -88 -37 -105 -45 -41 -18 -79 -29 -87 -27 -5 1 -8 -2 -8 -7 0 -7 -52 -26
-100 -35 -8 -2 -22 -6 -30 -9 -51 -19 -279 -88 -298 -90 -12 -1 -22 -4 -22 -8
0 -4 -21 -10 -46 -14 -60 -9 -71 -11 -119 -23 -22 -6 -57 -13 -79 -16 -21 -4
-41 -8 -45 -11 -4 -2 -30 -7 -57 -10 -27 -4 -105 -17 -174 -30 -171 -32 -314
-49 -355 -42 -19 3 -35 1 -37 -5 -3 -7 -162 -11 -493 -12 -622 -1 -841 3 -991
20 -65 7 -145 13 -176 14 -31 0 -60 4 -63 10 -3 5 -25 10 -48 10 -53 0 -419
67 -477 88 -8 3 -24 7 -35 8 -73 13 -85 16 -85 24 0 5 -6 7 -13 4 -7 -2 -31 3
-53 12 -21 10 -43 18 -49 20 -49 10 -95 26 -95 34 0 5 -7 7 -15 4 -8 -4 -15
-1 -15 6 0 6 -3 9 -8 6 -4 -2 -23 3 -42 11 -19 9 -41 17 -48 19 -8 1 -21 6
-30 10 -9 4 -26 9 -37 11 -10 2 -23 9 -27 16 -4 6 -8 9 -8 5 0 -16 -204 81
-221 105 -3 5 -9 8 -13 7 -11 -3 -66 22 -66 30 0 3 -6 7 -13 7 -20 0 -137 72
-137 84 0 6 -4 8 -9 5 -5 -3 -23 8 -40 24 -17 17 -31 28 -31 25 0 -3 -16 6
-35 21 -19 14 -32 31 -28 37 3 5 1 7 -5 3 -27 -17 -352 340 -400 440 -8 19
-20 34 -24 34 -5 0 -7 4 -4 9 3 5 -1 12 -10 15 -8 3 -13 10 -10 15 4 5 2 11
-3 13 -13 5 -71 129 -65 139 3 5 0 9 -6 9 -6 0 -9 4 -6 9 4 5 3 11 -1 13 -12
5 -85 215 -100 288 -2 14 -7 32 -10 40 -4 8 -5 21 -4 28 1 6 -3 12 -8 12 -6 0
-7 15 -4 36 5 29 2 39 -12 46 -16 10 -17 24 -10 196 8 200 9 218 24 302 6 30
15 84 21 119 5 35 14 69 19 75 4 6 14 33 20 61 7 27 16 54 20 60 5 5 11 22 15
37 6 25 38 97 103 233 13 28 35 68 48 90 14 22 28 47 32 55 16 37 210 323 249
370 32 37 134 154 216 247 40 45 82 99 93 120 10 21 20 40 22 42 1 2 14 -11
29 -28 14 -18 29 -30 31 -27 3 3 -4 14 -15 26 -11 12 -25 42 -31 66 -6 24 -20
59 -31 76 -11 18 -20 36 -20 40 0 9 57 -11 95 -33 56 -33 227 -98 299 -114 62
-14 130 -32 161 -42 67 -21 485 -34 485 -14 0 4 18 8 40 8 22 0 46 6 55 13 8
7 22 10 30 6 8 -3 15 -2 15 3 0 5 17 12 38 15 51 10 198 52 317 93 55 19 106
34 113 35 6 1 12 5 12 9 0 4 15 12 34 19 40 13 91 57 100 87 11 33 -4 91 -30
122 l-24 28 43 17 c23 9 48 16 54 16 14 0 27 57 28 120 0 98 -53 152 -210 210
-49 18 -96 37 -102 43 -7 5 -13 7 -13 4 0 -4 -26 10 -57 29 -32 20 -71 43 -88
52 -16 10 -113 101 -215 203 -222 222 -377 342 -500 384 -25 8 -52 18 -60 22
-8 3 -19 7 -25 8 -5 0 -22 6 -36 12 -14 6 -74 14 -135 18 -120 7 -222 -8 -298
-45 -23 -11 -46 -20 -50 -20 -5 0 -30 -11 -56 -24 -27 -13 -51 -22 -53 -19 -3
2 -15 0 -26 -6 -17 -9 -20 -9 -15 3 4 11 0 13 -18 9 -13 -3 -28 -10 -34 -15
-6 -4 -18 -6 -25 -3 -9 3 -19 -6 -27 -25 -8 -17 -18 -27 -25 -23 -6 4 -8 0 -4
-10 3 -10 2 -17 -3 -17 -6 0 -10 -4 -10 -10 0 -5 7 -7 15 -4 9 4 15 0 15 -10
0 -10 -9 -16 -25 -16 -20 0 -25 5 -25 23 0 41 109 175 131 161 7 -4 9 -3 6 4
-9 13 135 165 238 250 44 37 83 71 87 77 4 5 8 7 8 3 0 -5 9 0 19 10 32 29
163 127 170 127 4 0 17 10 31 23 13 12 30 20 37 18 7 -3 12 -1 10 4 -2 8 168
121 223 147 14 7 43 24 65 37 36 23 138 77 270 144 28 14 52 29 55 33 3 4 18
11 33 14 15 4 27 11 27 15 0 5 17 14 38 21 20 6 43 16 50 22 6 5 12 7 12 4 0
-3 38 17 85 44 47 27 88 49 91 49 3 0 52 23 110 50 58 28 107 50 110 50 2 0
21 10 42 23 20 13 80 41 132 62 52 21 100 42 107 47 7 6 16 7 22 4 5 -3 11 -3
13 1 2 7 47 31 111 61 4 2 7 -1 7 -8 0 -13 -84 -97 -137 -137 -21 -15 -40 -30
-43 -33 -12 -14 -152 -121 -214 -164 -38 -27 -74 -52 -80 -57 -28 -23 -205
-148 -324 -230 -74 -50 -131 -93 -129 -95 2 -3 60 17 128 45 137 54 170 66
182 63 4 -1 7 3 7 8 0 6 4 10 9 10 5 0 25 7 45 15 20 8 37 15 38 14 2 -1 21 7
43 18 22 12 45 22 50 23 19 5 80 32 150 65 83 39 107 49 118 47 4 -1 7 2 7 7
0 8 28 22 50 26 3 0 16 7 30 15 14 8 30 15 35 16 6 1 26 11 45 23 49 29 202
104 219 107 8 2 18 9 22 16 5 7 9 9 9 3 0 -7 3 -7 8 0 4 6 25 19 47 30 22 11
43 24 46 28 4 5 23 19 43 31 47 28 190 126 241 165 53 41 65 40 55 -3z m-3675
-1066 c-3 -5 -11 -10 -16 -10 -6 0 -7 5 -4 10 3 6 11 10 16 10 6 0 7 -4 4 -10z
m-24 -72 c-3 -21 -6 -26 -9 -15 -3 17 3 47 11 47 2 0 1 -15 -2 -32z m-11 -72
c0 -3 -4 -8 -10 -11 -5 -3 -10 -1 -10 4 0 6 5 11 10 11 6 0 10 -2 10 -4z m760
-326 c0 -10 -4 -21 -9 -24 -5 -3 -8 7 -7 23 1 32 16 32 16 1z m441 -10 c6 0 7
6 3 13 -4 6 2 4 13 -5 13 -12 38 -18 74 -19 30 -1 64 -4 75 -7 33 -10 84 -53
100 -84 13 -25 12 -29 -11 -54 -14 -15 -25 -23 -25 -19 0 4 -6 3 -12 -2 -20
-15 -50 -24 -43 -13 3 6 1 10 -4 10 -6 0 -11 -6 -11 -12 0 -7 -10 -13 -22 -14
-36 -2 -238 -57 -238 -65 0 -4 23 -19 50 -33 120 -63 293 -202 309 -248 15
-44 15 -46 -20 -43 -33 3 -75 21 -97 43 -22 20 -69 42 -76 35 -3 -4 -6 -1 -6
6 0 7 -4 9 -10 6 -5 -3 -10 -2 -10 3 0 12 -119 64 -131 56 -5 -3 -9 -1 -9 4 0
9 -31 23 -55 26 -5 1 -15 6 -22 12 -7 7 -45 20 -85 30 -99 26 -334 25 -392 -1
-31 -13 -36 -19 -25 -27 10 -7 8 -8 -8 -3 -29 8 -62 -13 -55 -37 2 -10 12 -18
21 -18 12 0 13 -2 3 -9 -8 -4 -13 -12 -12 -17 1 -5 -3 -10 -9 -12 -6 -2 -11 5
-11 15 0 19 -47 47 -52 31 -2 -5 -10 -10 -18 -11 -8 -2 -21 -6 -28 -11 -19
-12 -23 -3 -15 35 4 23 25 53 67 94 83 82 138 107 306 140 8 2 15 4 15 5 0 1
15 3 34 5 21 2 46 15 65 34 18 17 37 31 44 31 7 0 12 4 12 8 0 7 63 42 76 42
3 0 2 -5 -2 -12 -4 -7 -3 -8 5 -4 6 4 9 11 6 16 -3 5 22 22 55 38 36 19 60 26
61 19 0 -8 2 -7 6 1 6 15 51 36 70 33 6 -1 15 4 20 11 6 10 8 9 11 -4 2 -10 8
-18 13 -18z m222 18 c20 -6 37 -15 37 -20 0 -5 -4 -7 -8 -4 -21 12 -67 15 -75
3 -6 -8 -7 -7 -4 4 4 13 -4 16 -51 15 -32 -1 -60 -5 -64 -11 -5 -6 -14 -4 -24
7 -16 16 -12 17 67 17 46 0 101 -5 122 -11z m197 -81 c34 -16 155 -105 209
-154 35 -31 41 -41 28 -46 -11 -4 -14 -2 -11 7 3 7 -5 20 -18 28 -13 9 -33 26
-45 37 -13 12 -23 17 -23 12 0 -6 -15 -3 -35 6 -19 9 -35 21 -35 26 0 5 7 4
15 -3 9 -7 18 -10 21 -8 6 7 -43 43 -88 64 -63 30 -78 39 -78 46 0 8 21 3 60
-15z m30 -52 c0 -2 -9 -3 -19 -2 -11 0 -18 5 -15 9 4 6 34 0 34 -7z m80 -81
c0 -2 -9 0 -20 6 -11 6 -20 13 -20 16 0 2 9 0 20 -6 11 -6 20 -13 20 -16z m65
-24 c16 -17 16 -20 3 -15 -9 4 -19 13 -22 21 -7 19 -2 18 19 -6z m159 -126
c72 -73 90 -94 64 -78 -7 4 -8 3 -4 -5 4 -6 11 -9 16 -6 5 3 19 -5 32 -17 126
-123 285 -224 431 -272 28 -9 20 -23 -13 -21 -16 1 -27 -2 -24 -7 12 -19 -15
-6 -30 15 -12 17 -14 18 -9 3 4 -12 3 -17 -4 -13 -6 4 -22 -7 -37 -23 -17 -20
-36 -30 -55 -30 -15 0 -43 -8 -62 -17 -27 -13 -71 -18 -206 -21 -163 -4 -172
-4 -189 16 -16 19 -19 19 -29 5 -8 -11 -18 -14 -31 -8 -17 7 -17 8 6 14 17 5
21 9 12 15 -7 4 -19 2 -27 -4 -16 -13 -98 0 -144 24 -35 18 -113 51 -123 51
-4 0 -13 6 -20 14 -11 12 -10 13 4 8 10 -3 20 -1 24 5 4 7 3 8 -4 4 -7 -4 -12
-3 -12 3 0 6 16 8 38 5 28 -4 33 -3 22 5 -13 9 -11 11 7 11 12 0 28 -7 37 -15
8 -8 24 -15 35 -15 11 0 23 -4 26 -10 3 -5 24 -10 45 -10 21 0 42 5 45 10 3 6
19 10 36 10 16 0 29 5 29 10 0 6 -32 11 -72 11 -69 1 -71 2 -28 10 25 4 60 8
78 8 27 1 32 -3 32 -22 0 -20 4 -22 40 -19 30 3 40 8 40 22 0 9 16 28 35 41
19 13 35 27 35 32 0 4 10 7 21 7 19 0 21 4 16 40 -3 22 -1 43 4 46 5 3 5 13
-1 25 -6 11 -9 23 -6 28 3 4 -1 8 -9 8 -9 0 -15 -10 -15 -24 0 -26 -12 -30
-28 -10 -9 10 -8 19 3 34 12 18 13 23 1 32 -10 8 -16 9 -21 1 -3 -5 -12 -10
-18 -10 -8 0 -7 3 2 9 11 7 11 13 -3 32 -9 13 -16 19 -16 13 0 -6 -6 -11 -13
-11 -7 0 -13 8 -13 18 0 14 6 18 26 14 l25 -4 -25 19 c-14 10 -27 15 -28 9 -5
-12 -32 8 -32 23 0 6 7 5 15 -2 17 -14 20 -3 6 19 -8 13 -12 13 -28 0 -16 -13
-17 -13 -4 4 7 9 15 17 16 17 2 0 37 -34 79 -76z m-84 11 c7 -9 8 -15 2 -15
-5 0 -12 7 -16 15 -3 8 -4 15 -2 15 2 0 9 -7 16 -15z m-2115 -74 c-7 -32 -25
-43 -25 -16 0 17 22 56 28 50 2 -2 1 -17 -3 -34z m763 -41 c6 0 15 7 20 16 5
9 12 13 14 8 3 -5 -8 -19 -23 -32 -22 -18 -29 -20 -29 -9 0 8 -7 17 -15 21 -8
3 -15 11 -15 17 0 8 7 6 18 -4 10 -10 24 -17 30 -17z m319 14 c-3 -3 -12 -4
-19 -1 -8 3 -5 6 6 6 11 1 17 -2 13 -5z m1093 -20 c0 -8 -4 -12 -10 -9 -5 3
-10 10 -10 16 0 5 5 9 10 9 6 0 10 -7 10 -16z m104 -43 c3 -5 -1 -11 -9 -14
-9 -4 -12 -1 -8 9 6 16 10 17 17 5z m-811 -66 c-3 -9 -8 -14 -10 -11 -3 3 -2
9 2 15 9 16 15 13 8 -4z m14 -27 c-3 -8 -6 -5 -6 6 -1 11 2 17 5 13 3 -3 4
-12 1 -19z m33 8 c0 -8 -4 -18 -10 -21 -5 -3 -10 3 -10 14 0 12 5 21 10 21 6
0 10 -6 10 -14z m27 -21 c-9 -7 -15 -15 -12 -19 3 -3 0 -2 -7 3 -14 13 9 44
25 34 6 -4 4 -11 -6 -18z m48 -15 c-3 -5 -12 -10 -18 -10 -7 0 -6 4 3 10 19
12 23 12 15 0z m165 -64 c0 -2 -7 -6 -15 -10 -8 -3 -15 -1 -15 4 0 6 7 10 15
10 8 0 15 -2 15 -4z m1054 -71 c21 -9 36 -22 36 -32 0 -9 -3 -13 -6 -10 -4 3
-14 2 -24 -3 -10 -5 -21 -6 -25 -2 -7 7 -12 8 -40 11 -8 0 -15 8 -15 16 0 16
15 21 23 8 2 -5 3 -3 1 4 -2 9 4 23 11 23 2 0 19 -7 39 -15z m-1040 -17 c-3
-4 -9 -8 -15 -8 -5 0 -9 4 -9 8 0 5 7 9 15 9 8 0 12 -4 9 -9z m-1114 -55 c24
-32 72 -83 108 -113 165 -138 242 -231 242 -294 0 -38 -35 -93 -109 -169 -62
-64 -103 -93 -142 -101 -15 -2 -40 -11 -57 -20 -16 -8 -32 -12 -36 -9 -3 4 -6
1 -6 -6 0 -8 -7 -11 -15 -7 -8 3 -15 1 -15 -4 0 -6 -3 -9 -7 -8 -5 1 -30 -8
-56 -20 -27 -12 -54 -19 -60 -15 -7 3 -9 3 -5 -2 10 -11 -10 -35 -29 -35 -17
0 -16 24 13 350 11 132 20 182 45 253 16 48 27 92 24 96 -3 5 -1 11 5 13 6 2
12 17 14 35 3 17 9 40 15 51 6 11 8 22 4 25 -5 6 14 37 22 37 2 0 22 -26 45
-57z m1160 31 c0 -13 10 -17 28 -11 4 1 6 5 5 9 -2 4 4 5 12 1 13 -5 13 -7 -2
-18 -22 -16 -53 -2 -53 23 0 15 -2 15 -10 2 -5 -8 -10 -10 -10 -4 0 6 3 14 6
17 10 9 24 -2 24 -19z m100 -38 c0 -9 -30 -14 -35 -6 -4 6 3 10 14 10 12 0 21
-2 21 -4z m68 -21 c3 -3 2 -8 -3 -12 -4 -5 -10 -3 -12 3 -2 7 -13 10 -23 7
-11 -3 -20 0 -20 6 0 11 46 8 58 -4z m56 -16 c-3 -5 -14 -9 -25 -9 -10 0 -19
4 -19 9 0 5 11 9 25 9 13 0 22 -4 19 -9z m116 -19 c0 -5 -5 -10 -11 -10 -5 0
-7 5 -4 10 3 6 8 10 11 10 2 0 4 -4 4 -10z m90 0 c-8 -5 -28 -9 -45 -9 l-30 1
30 8 c17 4 37 8 45 9 13 1 13 0 0 -9z m173 -194 c11 1 16 0 13 -4 -4 -3 -22
-7 -41 -8 -31 -1 -33 0 -18 11 10 8 20 10 23 6 3 -5 13 -7 23 -5z m-98 -6 c4
-6 12 -7 18 -4 9 5 9 4 1 -5 -9 -10 -17 -10 -33 -1 -12 6 -26 8 -31 5 -5 -3
-11 -1 -15 5 -4 6 6 10 24 10 16 0 33 -5 36 -10z m140 -10 c3 -5 1 -10 -4 -10
-6 0 -11 5 -11 10 0 6 2 10 4 10 3 0 8 -4 11 -10z m-1846 -667 c-8 -10 -35
-41 -60 -70 -43 -48 -56 -69 -104 -175 -9 -20 -24 -39 -32 -42 -14 -6 -15 4
-10 81 9 119 17 155 33 149 7 -3 16 -1 19 5 11 16 119 68 144 69 21 0 22 -2
10 -17z m-297 -347 c13 -8 23 -5 43 14 14 13 25 20 25 16 0 -17 -35 -66 -47
-66 -15 0 -18 -17 -4 -22 5 -1 -7 -34 -26 -73 -43 -87 -110 -253 -122 -303 -5
-20 -17 -66 -26 -102 -33 -131 -44 -230 -46 -388 l-2 -162 -23 37 c-12 21 -20
41 -18 45 3 5 1 8 -4 8 -20 0 -67 164 -64 224 1 11 -3 27 -8 37 -5 9 -14 60
-20 113 -11 91 -10 100 20 220 17 69 37 144 45 168 16 43 65 149 75 158 3 3
19 23 35 45 16 22 50 60 74 84 l44 44 16 -43 c9 -23 24 -48 33 -54z m862
-2772 c3 -8 2 -12 -4 -9 -6 3 -10 10 -10 16 0 14 7 11 14 -7z m3393 -480 c-3
-3 -12 -4 -19 -1 -8 3 -5 6 6 6 11 1 17 -2 13 -5z"/>
<path d="M4049 8553 c-13 -16 -12 -17 4 -4 16 13 21 21 13 21 -2 0 -10 -8 -17
-17z"/>
<path d="M4480 7499 c0 -6 -7 -8 -17 -5 -9 4 -19 2 -23 -4 -4 -6 -17 -12 -28
-13 -12 -1 -22 -4 -22 -7 0 -4 -16 -12 -35 -20 -19 -8 -35 -17 -35 -22 0 -4
-5 -8 -10 -8 -22 0 -139 -124 -161 -171 -13 -27 -27 -49 -31 -49 -4 0 -10 -17
-14 -37 -4 -21 -11 -44 -17 -51 -15 -19 -2 -190 19 -242 23 -58 55 -108 116
-186 40 -51 65 -71 135 -109 48 -25 92 -44 99 -41 7 3 14 1 16 -4 2 -5 63 -12
136 -15 90 -4 131 -2 127 5 -3 5 0 10 7 11 28 1 48 8 80 24 18 10 43 23 55 29
13 6 23 14 23 19 0 4 6 7 13 7 15 0 107 82 107 95 0 6 16 32 35 59 51 72 69
135 69 246 0 86 -3 102 -31 162 -83 179 -217 293 -381 327 -71 15 -232 15
-232 0z m277 -146 c72 -34 113 -99 113 -178 0 -54 -32 -110 -86 -151 -30 -23
-47 -28 -105 -31 -38 -1 -69 2 -69 6 0 5 -13 14 -30 19 -38 14 -96 69 -109
106 -38 98 16 208 119 243 41 15 121 8 167 -14z"/>
<path d="M2315 6731 c-3 -5 -2 -12 3 -15 5 -3 9 1 9 9 0 17 -3 19 -12 6z"/>
<path d="M4061 6474 c0 -11 3 -14 6 -6 3 7 2 16 -1 19 -3 4 -6 -2 -5 -13z"/>
<path d="M5252 5398 c-18 -11 -31 -23 -28 -25 2 -3 22 7 43 21 44 31 33 34
-15 4z"/>
<path d="M5107 5310 c-26 -16 -47 -34 -47 -40 0 -17 14 -11 34 15 10 14 24 25
31 25 7 0 18 7 25 15 18 22 10 19 -43 -15z"/>
<path d="M2550 5189 c0 -11 149 -129 163 -129 7 1 6 5 -3 13 -9 7 -44 34 -78
60 -34 27 -60 52 -58 56 3 4 -1 8 -9 8 -8 0 -15 -4 -15 -8z"/>
<path d="M5022 5115 c0 -16 2 -22 5 -12 2 9 2 23 0 30 -3 6 -5 -1 -5 -18z"/>
<path d="M4325 5095 c4 -22 11 -62 16 -90 6 -39 7 -32 3 30 -3 44 -10 85 -16
90 -7 7 -8 -3 -3 -30z"/>
<path d="M2760 5032 c0 -7 33 -31 43 -32 4 0 2 8 -4 18 -10 16 -39 27 -39 14z"/>
<path d="M2830 4988 c26 -26 90 -60 90 -49 0 6 -5 11 -10 11 -6 0 -29 12 -53
26 -23 15 -35 20 -27 12z"/>
<path d="M2970 4906 c0 -7 40 -14 44 -7 3 4 -6 8 -20 9 -13 1 -24 0 -24 -2z"/>
<path d="M3086 4872 c-3 -5 1 -9 9 -9 8 0 12 4 9 9 -3 4 -7 8 -9 8 -2 0 -6 -4
-9 -8z"/>
<path d="M6514 4749 c-2 -4 -54 -12 -116 -18 -111 -12 -263 -45 -283 -61 -5
-4 -48 -23 -95 -41 -47 -17 -87 -35 -90 -39 -5 -6 -69 -34 -80 -35 -14 -1
-128 -93 -194 -158 -64 -62 -115 -122 -194 -227 -56 -75 -127 -213 -157 -305
-38 -116 -47 -188 -40 -325 10 -206 68 -408 166 -583 46 -81 289 -327 324
-327 9 0 75 -46 72 -51 -1 -2 0 -3 2 -2 2 2 20 -6 40 -16 50 -25 113 -52 131
-56 8 -2 35 -10 60 -18 25 -8 63 -18 85 -23 22 -4 47 -8 55 -10 112 -21 146
-29 150 -35 3 -4 92 -9 199 -10 171 -2 194 0 203 14 5 10 18 17 28 17 26 0
187 45 287 80 58 21 83 25 87 17 2 -7 5 -4 5 6 1 15 18 22 44 18 4 0 7 4 7 10
0 5 5 7 10 4 6 -3 10 -2 10 3 0 12 59 34 70 27 5 -3 10 -1 12 4 1 5 39 28 83
51 82 44 130 74 153 97 7 7 39 29 70 50 65 42 186 146 246 212 23 24 46 49 52
55 21 21 146 209 155 233 5 13 22 50 38 83 17 33 27 60 23 60 -4 0 -2 4 4 8
11 7 34 79 38 118 1 11 5 25 9 31 4 7 12 45 17 85 5 40 14 98 21 128 16 76 6
348 -16 415 -9 28 -18 57 -20 65 -26 117 -122 228 -236 271 -26 10 -117 28
-201 39 -172 23 -299 45 -373 65 -27 7 -77 16 -109 20 -33 4 -66 11 -75 15 -9
5 -88 18 -177 30 -122 16 -200 20 -328 18 -92 -2 -169 -6 -172 -9z m531 -209
c61 -6 169 -24 240 -40 72 -15 173 -36 225 -45 52 -9 127 -22 165 -30 39 -7
99 -17 135 -21 36 -3 71 -11 78 -17 6 -5 12 -6 12 -3 0 21 40 -20 50 -50 7
-20 23 -52 36 -71 34 -51 39 -87 39 -293 0 -201 -9 -265 -57 -415 -51 -159
-192 -347 -393 -522 -33 -29 -65 -53 -71 -53 -7 0 -14 -7 -18 -15 -3 -8 -9
-14 -13 -14 -15 3 -73 -23 -73 -33 0 -5 -4 -7 -9 -3 -5 3 -12 1 -15 -3 -11
-18 -286 -148 -286 -135 0 3 -7 0 -15 -7 -8 -6 -19 -9 -25 -5 -5 3 -10 2 -10
-4 0 -10 -61 -30 -105 -35 -11 -1 -27 -6 -34 -10 -20 -13 -124 -35 -134 -29
-5 3 -13 0 -18 -8 -5 -9 -26 -13 -63 -11 -33 1 -56 -2 -56 -8 0 -13 -178 -12
-280 1 -118 15 -150 21 -150 28 0 4 -12 8 -26 9 -49 4 -199 54 -283 95 -69 33
-101 57 -182 138 -55 54 -99 105 -99 113 0 9 -4 16 -8 16 -7 0 -54 81 -58 100
0 3 -6 19 -13 35 -29 66 -59 169 -54 181 3 8 1 14 -4 14 -15 0 -36 283 -24
322 5 18 15 60 21 93 6 33 18 75 27 94 8 18 16 39 17 46 1 7 7 19 12 26 6 8
18 30 27 49 9 20 25 46 36 59 11 13 18 29 14 35 -3 6 -3 8 1 4 5 -4 26 14 49
40 22 26 49 55 61 65 12 10 36 32 53 48 18 16 35 29 39 29 3 0 19 11 36 25 29
25 219 123 248 129 8 2 28 8 44 15 16 6 36 13 45 15 9 1 36 8 61 15 25 7 54
14 65 16 11 2 52 8 90 14 109 17 127 18 340 19 110 1 250 -3 310 -8z"/>
<path d="M6808 3093 c7 -3 16 -2 19 1 4 3 -2 6 -13 5 -11 0 -14 -3 -6 -6z"/>
<path d="M6748 3063 c7 -3 16 -2 19 1 4 3 -2 6 -13 5 -11 0 -14 -3 -6 -6z"/>
<path d="M7857 2713 c-12 -11 -8 -23 8 -23 8 0 15 7 15 15 0 16 -12 20 -23 8z"/>
<path d="M7804 2645 c-15 -20 -33 -34 -39 -32 -16 7 -34 -18 -25 -34 7 -10 23
1 66 44 33 33 51 57 42 57 -9 0 -28 -16 -44 -35z"/>
<path d="M5460 2654 c0 -10 8 -22 50 -74 16 -21 19 -22 20 -7 0 10 -7 20 -15
23 -8 4 -15 10 -15 15 0 6 -9 19 -20 31 -11 12 -20 17 -20 12z"/>
<path d="M7670 2545 c-19 -19 -39 -35 -43 -35 -17 0 -107 -67 -100 -74 4 -4 0
-4 -9 -1 -11 4 -21 -1 -29 -14 -11 -16 -16 -18 -28 -8 -12 10 -14 9 -9 -4 4
-9 1 -22 -5 -28 -8 -8 -7 -11 4 -11 9 0 24 9 34 20 10 11 22 17 26 14 5 -3 20
6 34 20 14 15 32 23 40 20 11 -5 13 -2 9 10 -4 11 -1 16 10 16 9 0 16 4 16 10
0 5 7 7 15 4 11 -5 13 -2 9 10 -4 11 -1 16 10 16 9 0 19 6 22 14 3 8 16 17 29
20 16 4 22 11 19 21 -9 22 -16 19 -54 -20z"/>
<path d="M5590 2497 c0 -15 58 -52 67 -43 4 3 1 6 -6 6 -7 0 -9 4 -6 10 3 6
-1 7 -10 4 -11 -5 -18 0 -22 15 -6 23 -23 29 -23 8z"/>
<path d="M7340 2460 c-1 -21 -74 -64 -113 -66 -42 -2 -41 -2 -28 -17 6 -8 7
-17 3 -22 -10 -11 32 11 103 53 64 38 93 62 76 62 -5 0 -13 -5 -17 -11 -4 -8
-9 -7 -15 2 -7 12 -9 11 -9 -1z"/>
<path d="M6117 2449 c7 -7 15 -10 18 -7 3 3 -2 9 -12 12 -14 6 -15 5 -6 -5z"/>
<path d="M5667 2429 c7 -7 15 -10 18 -7 3 3 -2 9 -12 12 -14 6 -15 5 -6 -5z"/>
<path d="M7410 2390 c-8 -5 -11 -12 -7 -16 4 -4 15 0 24 9 18 18 8 23 -17 7z"/>
<path d="M5751 2374 c0 -11 3 -14 6 -6 3 7 2 16 -1 19 -3 4 -6 -2 -5 -13z"/>
<path d="M7166 2355 c-10 -8 -23 -12 -27 -9 -5 3 -9 -2 -9 -11 0 -13 3 -14 23
-3 12 7 25 11 30 10 4 -1 7 5 7 13 0 18 0 18 -24 0z"/>
<path d="M7353 2349 c-40 -12 -50 -26 -18 -26 14 0 22 4 18 10 -3 5 -1 7 5 4
12 -8 42 2 42 14 0 11 -4 10 -47 -2z"/>
<path d="M5788 2343 c7 -3 16 -2 19 1 4 3 -2 6 -13 5 -11 0 -14 -3 -6 -6z"/>
<path d="M5874 2308 c-4 -5 -1 -15 5 -21 9 -9 10 -7 5 8 -7 20 -7 20 14 1 12
-11 22 -17 23 -15 0 2 2 11 4 20 2 12 -4 17 -21 17 -14 0 -27 -5 -30 -10z"/>
<path d="M7270 2300 c0 -6 7 -10 15 -10 8 0 15 2 15 4 0 2 -7 6 -15 10 -8 3
-15 1 -15 -4z"/>
<path d="M7250 2292 c0 -5 -25 -17 -56 -28 -30 -10 -60 -24 -65 -31 -6 -6 -17
-9 -25 -6 -8 3 -14 0 -14 -6 0 -10 7 -13 26 -10 4 0 11 -5 15 -13 6 -9 9 -3 9
17 0 18 3 25 8 18 10 -16 32 -12 68 12 16 11 35 20 42 21 20 4 21 8 6 22 -8 7
-14 9 -14 4z"/>
<path d="M7036 2282 c-3 -5 1 -9 9 -9 8 0 15 4 15 9 0 4 -4 8 -9 8 -6 0 -12
-4 -15 -8z"/>
<path d="M6302 2220 c0 -14 2 -19 5 -12 2 6 2 18 0 25 -3 6 -5 1 -5 -13z"/>
<path d="M7042 2203 c-32 -13 -44 -40 -18 -40 8 0 12 6 9 14 -3 7 -1 13 5 13
6 0 13 -6 15 -12 3 -8 6 -6 6 5 1 20 17 23 24 5 2 -7 8 -10 12 -6 4 4 1 13 -6
21 -12 11 -19 11 -47 0z"/>
<path d="M6350 2180 c0 -5 5 -10 11 -10 5 0 7 5 4 10 -3 6 -8 10 -11 10 -2 0
-4 -4 -4 -10z"/>
<path d="M6990 2181 c0 -8 -7 -11 -17 -6 -15 5 -16 4 -5 -6 9 -10 15 -10 24
-1 6 6 9 15 5 19 -4 3 -7 1 -7 -6z"/>
<path d="M6910 2149 c0 -5 5 -7 10 -4 6 3 10 8 10 11 0 2 -4 4 -10 4 -5 0 -10
-5 -10 -11z"/>
<path d="M6882 2138 c-7 -7 -12 -16 -12 -21 0 -5 7 -1 16 8 9 9 14 18 12 20
-2 3 -10 -1 -16 -7z"/>
<path d="M4323 1884 c3 -3 22 -6 42 -6 20 0 39 3 42 6 4 3 -15 6 -42 6 -27 0
-46 -3 -42 -6z"/>
<path d="M2498 6478 c-10 -10 -14 -18 -9 -18 10 0 36 29 30 34 -2 1 -12 -6
-21 -16z"/>
<path d="M1941 6259 c-13 -11 -22 -21 -20 -24 3 -2 18 7 34 20 17 13 26 24 20
24 -5 0 -21 -9 -34 -20z"/>
<path d="M3460 6226 c0 -2 8 -10 18 -17 15 -13 16 -12 3 4 -13 16 -21 21 -21
13z"/>
<path d="M3606 6072 c-2 -4 4 -8 14 -8 10 0 16 4 14 8 -3 4 -9 8 -14 8 -5 0
-11 -4 -14 -8z"/>
</g>
</svg>
